<svg width="22" height="22" viewBox="0 0 22 22" fill="none" xmlns="http://www.w3.org/2000/svg">
<path d="M19.5714 18.6154H2.42857V7.53846H7.65C8.02888 7.53846 8.39224 7.39259 8.66015 7.13292C8.92806 6.87325 9.07857 6.52107 9.07857 6.15385H2.42857V3.38462H7.06429L8.92857 5.87C8.99507 5.9582 9.08215 6.0299 9.18271 6.07923C9.28327 6.12856 9.39444 6.15413 9.50714 6.15385H19.5714V18.6154Z" fill="#FF6915" stroke="#FF6915"/>
<path d="M9.47133 5.0691L9.62132 5.26923H9.87143H19.5714C19.8227 5.26923 20.0606 5.36611 20.2336 5.53381L20.5816 5.17478L20.2336 5.53381C20.4061 5.701 20.5 5.92437 20.5 6.15385V18.6154C20.5 18.8449 20.4061 19.0682 20.2336 19.2354C20.0606 19.4031 19.8227 19.5 19.5714 19.5H2.42857C2.17735 19.5 1.93943 19.4031 1.76641 19.2354C1.59391 19.0682 1.5 18.8449 1.5 18.6154V3.38462C1.5 3.15514 1.59391 2.93177 1.76641 2.76458C1.93943 2.59688 2.17734 2.5 2.42857 2.5L7.06429 2.50001L7.06554 2.5C7.21468 2.49963 7.36119 2.5335 7.49293 2.59813C7.62442 2.66264 7.73678 2.75559 7.8218 2.86819C7.82193 2.86836 7.82205 2.86853 7.82218 2.8687L9.47133 5.0691ZM19.5714 19.1154H20.0714V18.6154V6.15385V5.65385H19.5714H9.57857L9.50714 5.65385L9.50422 5.65385C9.46838 5.65369 9.43364 5.64541 9.40293 5.63034C9.37194 5.61514 9.34662 5.59383 9.32807 5.56934C9.32799 5.56922 9.3279 5.56911 9.32782 5.569L7.46427 3.08459L7.31427 2.88462H7.06429H2.42857H1.92857V3.38462V6.15385V6.65385H2.42857H8.41593C8.38539 6.6963 8.35074 6.7365 8.31217 6.77389C8.13914 6.94159 7.90123 7.03846 7.65 7.03846H2.42857H1.92857V7.53846V18.6154V19.1154H2.42857H19.5714Z" fill="white" stroke="#FF6915"/>
<mask id="path-3-inside-1_1417_44822" fill="white">
<path d="M8.0814 13H14.9186C14.9729 13 15 12.9649 15 12.8947V12.1053C15 12.0351 14.9729 12 14.9186 12H8.0814C8.02713 12 8 12.0351 8 12.1053V12.8947C8 12.9649 8.02713 13 8.0814 13Z"/>
</mask>
<path d="M8.0814 13H14.9186C14.9729 13 15 12.9649 15 12.8947V12.1053C15 12.0351 14.9729 12 14.9186 12H8.0814C8.02713 12 8 12.0351 8 12.1053V12.8947C8 12.9649 8.02713 13 8.0814 13Z" fill="white"/>
<path d="M8.0814 12H14.9186V14H8.0814V12ZM14.9186 12C14.713 12 14.4069 12.0796 14.1886 12.362C14.008 12.5955 14 12.8288 14 12.8947H16C16 13.0309 15.9785 13.3168 15.7707 13.5854C15.5253 13.9028 15.1785 14 14.9186 14V12ZM14 12.8947V12.1053H16V12.8947H14ZM14 12.1053C14 12.1712 14.008 12.4045 14.1886 12.638C14.4069 12.9204 14.713 13 14.9186 13V11C15.1785 11 15.5253 11.0972 15.7707 11.4146C15.9785 11.6832 16 11.9691 16 12.1053H14ZM14.9186 13H8.0814V11H14.9186V13ZM8.0814 13C8.287 13 8.59311 12.9204 8.81143 12.638C8.99202 12.4045 9 12.1712 9 12.1053H7C7 11.9691 7.02154 11.6832 7.22927 11.4146C7.47472 11.0972 7.82152 11 8.0814 11V13ZM9 12.1053V12.8947H7V12.1053H9ZM9 12.8947C9 12.8288 8.99202 12.5955 8.81143 12.362C8.59311 12.0796 8.287 12 8.0814 12V14C7.82152 14 7.47472 13.9028 7.22927 13.5854C7.02154 13.3168 7 13.0309 7 12.8947H9Z" fill="white" mask="url(#path-3-inside-1_1417_44822)"/>
</svg>
