<svg width="22" height="22" viewBox="0 0 22 22" fill="none" xmlns="http://www.w3.org/2000/svg">
<path d="M9.47133 5.0691L9.62132 5.26923H9.87143H19.5714C19.8227 5.26923 20.0606 5.36611 20.2336 5.53381L20.5816 5.17478L20.2336 5.53381C20.4061 5.701 20.5 5.92437 20.5 6.15385V18.6154C20.5 18.8449 20.4061 19.0682 20.2336 19.2354C20.0606 19.4031 19.8227 19.5 19.5714 19.5H2.42857C2.17735 19.5 1.93943 19.4031 1.76641 19.2354C1.59391 19.0682 1.5 18.8449 1.5 18.6154V3.38462C1.5 3.15514 1.59391 2.93177 1.76641 2.76458C1.93943 2.59688 2.17734 2.5 2.42857 2.5L7.06429 2.50001L7.06554 2.5C7.21468 2.49963 7.36119 2.5335 7.49293 2.59813C7.62442 2.66264 7.73678 2.75559 7.8218 2.86819C7.82193 2.86836 7.82205 2.86853 7.82218 2.8687L9.47133 5.0691ZM19.5714 19.1154H20.0714V18.6154V6.15385V5.65385H19.5714H9.57857L9.50714 5.65385L9.50422 5.65385C9.46838 5.65369 9.43364 5.64541 9.40293 5.63034C9.37194 5.61514 9.34662 5.59383 9.32807 5.56934C9.32799 5.56922 9.3279 5.56911 9.32782 5.569L7.46427 3.08459L7.31427 2.88462H7.06429H2.42857H1.92857V3.38462V6.15385V6.65385H2.42857H8.41593C8.38539 6.6963 8.35074 6.7365 8.31217 6.77389C8.13914 6.94159 7.90123 7.03846 7.65 7.03846H2.42857H1.92857V7.53846V18.6154V19.1154H2.42857H19.5714Z" fill="white" stroke="#52758E"/>
<mask id="path-2-inside-1_1417_56392" fill="white">
<path d="M11.1053 16H11.8947C11.9649 16 12 15.9741 12 15.9222V9.07778C12 9.02593 11.9649 9 11.8947 9H11.1053C11.0351 9 11 9.02593 11 9.07778V15.9222C11 15.9741 11.0351 16 11.1053 16Z"/>
</mask>
<path d="M11.1053 16H11.8947C11.9649 16 12 15.9741 12 15.9222V9.07778C12 9.02593 11.9649 9 11.8947 9H11.1053C11.0351 9 11 9.02593 11 9.07778V15.9222C11 15.9741 11.0351 16 11.1053 16Z" fill="white"/>
<path d="M11.1053 15H11.8947V17H11.1053V15ZM11.8947 15C11.836 15 11.6103 15.0057 11.3794 15.1763C11.0919 15.3887 11 15.6985 11 15.9222H13C13 16.1978 12.8906 16.5464 12.5679 16.7848C12.3019 16.9814 12.0237 17 11.8947 17V15ZM11 15.9222V9.07778H13V15.9222H11ZM11 9.07778C11 9.3015 11.0919 9.61126 11.3794 9.82371C11.6103 9.99435 11.836 10 11.8947 10V8C12.0237 8 12.3019 8.01862 12.5679 8.21518C12.8906 8.45356 13 8.80221 13 9.07778H11ZM11.8947 10H11.1053V8H11.8947V10ZM11.1053 10C11.164 10 11.3897 9.99435 11.6206 9.82371C11.9081 9.61126 12 9.3015 12 9.07778H10C10 8.80221 10.1094 8.45356 10.4321 8.21518C10.6981 8.01862 10.9763 8 11.1053 8V10ZM12 9.07778V15.9222H10V9.07778H12ZM12 15.9222C12 15.6985 11.9081 15.3887 11.6206 15.1763C11.3897 15.0057 11.164 15 11.1053 15V17C10.9763 17 10.6981 16.9814 10.4321 16.7848C10.1094 16.5464 10 16.1978 10 15.9222H12Z" fill="#52758E" mask="url(#path-2-inside-1_1417_56392)"/>
<mask id="path-4-inside-2_1417_56392" fill="white">
<path d="M8.0814 13H14.9186C14.9729 13 15 12.9649 15 12.8947V12.1053C15 12.0351 14.9729 12 14.9186 12H8.0814C8.02713 12 8 12.0351 8 12.1053V12.8947C8 12.9649 8.02713 13 8.0814 13Z"/>
</mask>
<path d="M8.0814 13H14.9186C14.9729 13 15 12.9649 15 12.8947V12.1053C15 12.0351 14.9729 12 14.9186 12H8.0814C8.02713 12 8 12.0351 8 12.1053V12.8947C8 12.9649 8.02713 13 8.0814 13Z" fill="white"/>
<path d="M8.0814 12H14.9186V14H8.0814V12ZM14.9186 12C14.713 12 14.4069 12.0796 14.1886 12.362C14.008 12.5955 14 12.8288 14 12.8947H16C16 13.0309 15.9785 13.3168 15.7707 13.5854C15.5253 13.9028 15.1785 14 14.9186 14V12ZM14 12.8947V12.1053H16V12.8947H14ZM14 12.1053C14 12.1712 14.008 12.4045 14.1886 12.638C14.4069 12.9204 14.713 13 14.9186 13V11C15.1785 11 15.5253 11.0972 15.7707 11.4146C15.9785 11.6832 16 11.9691 16 12.1053H14ZM14.9186 13H8.0814V11H14.9186V13ZM8.0814 13C8.287 13 8.59311 12.9204 8.81143 12.638C8.99202 12.4045 9 12.1712 9 12.1053H7C7 11.9691 7.02154 11.6832 7.22927 11.4146C7.47472 11.0972 7.82152 11 8.0814 11V13ZM9 12.1053V12.8947H7V12.1053H9ZM9 12.8947C9 12.8288 8.99202 12.5955 8.81143 12.362C8.59311 12.0796 8.287 12 8.0814 12V14C7.82152 14 7.47472 13.9028 7.22927 13.5854C7.02154 13.3168 7 13.0309 7 12.8947H9Z" fill="#52758E" mask="url(#path-4-inside-2_1417_56392)"/>
</svg>
