<svg width="22" height="22" viewBox="0 0 22 22" fill="none" xmlns="http://www.w3.org/2000/svg">
<path d="M18.2316 8.4386H17.769L17.7933 6.7376C17.7904 6.63819 17.7521 6.54309 17.6853 6.4694L13.7109 2.1206C13.679 2.08412 13.6399 2.05458 13.5961 2.03384C13.5523 2.01309 13.5047 2.00157 13.4562 2H5.14021C4.95376 2.00299 4.77574 2.07821 4.64363 2.20982C4.51151 2.34143 4.43562 2.51916 4.43191 2.7056V8.4386H3.96841C3.71191 8.4386 3.46441 8.5448 3.28441 8.7338C3.10076 8.92589 2.9988 9.18174 3.00001 9.4475V14.6945C3.00001 15.2507 3.43381 15.7025 3.96841 15.7025H4.43191V19.2935C4.4354 19.4804 4.51144 19.6586 4.64396 19.7905C4.77648 19.9223 4.95509 19.9975 5.14201 20H17.0922C17.4657 20 17.7942 19.6832 17.7942 19.2944V15.7034H18.2325C18.7671 15.7034 19.2009 15.2507 19.2009 14.6936V9.4466C19.2009 9.1802 19.0992 8.9228 18.9174 8.7338C18.8292 8.64098 18.7232 8.56698 18.6056 8.51624C18.4881 8.46551 18.3614 8.4391 18.2334 8.4386H18.2316ZM5.65501 3.2402H11.9154V7.3595C11.9151 7.45225 11.9505 7.54156 12.0144 7.6088C12.0454 7.64138 12.0827 7.66735 12.124 7.68514C12.1653 7.70293 12.2097 7.71217 12.2547 7.7123H16.5378V8.4386H5.65501V3.2402ZM5.65501 18.7598V15.7025H16.5378V18.7598H5.65501ZM13.1619 3.368L13.5084 3.7586L15.8304 6.3263L15.9591 6.482H13.5858C13.4058 6.482 13.2933 6.4523 13.2456 6.392C13.1979 6.3335 13.17 6.239 13.1619 6.1103V3.368ZM4.80001 14.8088V9.4088H6.52621C7.17961 9.4088 7.60621 9.4358 7.80421 9.4898C8.11021 9.5708 8.36581 9.7472 8.57191 10.019C8.77711 10.2899 8.88061 10.64 8.88061 11.0702C8.88061 11.4014 8.82121 11.6804 8.70241 11.9072C8.58361 12.1322 8.43241 12.3095 8.24971 12.4382C8.08271 12.5601 7.89298 12.6473 7.69171 12.6947C7.43521 12.746 7.06351 12.7721 6.57661 12.7721H5.87551V14.8088H4.80001V14.8088ZM5.87551 10.3223V11.855H6.46411C6.88801 11.855 7.17151 11.8262 7.31461 11.7704C7.45292 11.7182 7.57141 11.624 7.65341 11.501C7.73541 11.378 7.77682 11.2324 7.77181 11.0846C7.77838 10.9068 7.71727 10.7331 7.60081 10.5986C7.48844 10.4717 7.33596 10.3872 7.16881 10.3592C7.04101 10.3349 6.78271 10.3232 6.39481 10.3232H5.87551V10.3223ZM9.51151 9.4088H11.4771C11.9208 9.4088 12.2583 9.443 12.4914 9.5123C12.8037 9.605 13.071 9.7715 13.2942 10.0091C13.5165 10.2476 13.6866 10.5392 13.8027 10.8839C13.9197 11.2295 13.9773 11.6543 13.9773 12.1601C13.9773 12.6047 13.9233 12.9881 13.8135 13.3094C13.6803 13.7027 13.4895 14.0204 13.2429 14.2634C13.0566 14.4479 12.8046 14.5919 12.4869 14.6954C12.2502 14.771 11.9325 14.8088 11.5356 14.8088H9.51151V9.4088V9.4088ZM10.587 10.3223V13.8989H11.3898C11.6904 13.8989 11.9073 13.8818 12.0405 13.8476C12.2151 13.8026 12.36 13.7288 12.4743 13.6226C12.5895 13.5173 12.684 13.3436 12.756 13.1015C12.8289 12.8594 12.8649 12.53 12.8649 12.1124C12.8649 11.6948 12.8289 11.3744 12.7569 11.1512C12.6997 10.9543 12.5946 10.7746 12.4509 10.6283C12.312 10.4986 12.1396 10.4104 11.9532 10.3736C11.8029 10.3394 11.5086 10.3223 11.0712 10.3223H10.587ZM14.6487 14.8088V9.4088H18.3V10.3223H15.7242V11.6003H17.9472V12.5138H15.7242V14.8088H14.6487Z" fill="#52758E"/>
</svg>
