<svg width="22" height="22" viewBox="0 0 22 22" fill="none" xmlns="http://www.w3.org/2000/svg">
<path d="M14.8383 6.48073L15.1314 6.28602L15.4136 6.49614C15.8423 6.81532 16.3951 7.0102 17 7.0102C18.4198 7.0102 19.5 5.95963 19.5 4.7551C19.5 3.55058 18.4198 2.5 17 2.5C15.5802 2.5 14.5 3.55058 14.5 4.7551C14.5 4.96846 14.5323 5.17438 14.5939 5.36793L14.7083 5.72721L14.3944 5.93599L9.47436 9.20768L9.09805 9.45791L8.81117 9.10873C8.17776 8.33778 7.16045 7.82653 6 7.82653C4.02521 7.82653 2.5 9.28578 2.5 11C2.5 12.7142 4.02521 14.1735 6 14.1735C7.16045 14.1735 8.17776 13.6622 8.81117 12.8913L9.09805 12.5421L9.47436 12.7923L14.3944 16.064L14.7083 16.2728L14.5939 16.6321C14.5322 16.8258 14.5 17.0295 14.5 17.2449C14.5 18.4494 15.5802 19.5 17 19.5C18.4198 19.5 19.5 18.4494 19.5 17.2449C19.5 16.0404 18.4198 14.9898 17 14.9898C16.3951 14.9898 15.8423 15.1847 15.4136 15.5039L15.1314 15.714L14.8383 15.5193L9.6583 12.0777L9.3794 11.8924L9.44456 11.5639C9.51855 11.1909 9.51855 10.8091 9.44456 10.4361L9.3794 10.1076L9.6583 9.92231L14.8383 6.48073ZM18.8 17.2449C18.8 18.2192 17.9527 18.9388 17 18.9388C16.0473 18.9388 15.2 18.2192 15.2 17.2449C15.2 16.2706 16.0473 15.551 17 15.551C17.9527 15.551 18.8 16.2706 18.8 17.2449ZM3.3 11C3.3 9.57111 4.55229 8.47959 6 8.47959C7.44771 8.47959 8.7 9.57111 8.7 11C8.7 12.4289 7.44771 13.5204 6 13.5204C4.55229 13.5204 3.3 12.4289 3.3 11ZM15.2 4.7551C15.2 3.7808 16.0473 3.06122 17 3.06122C17.9527 3.06122 18.8 3.7808 18.8 4.7551C18.8 5.7294 17.9527 6.44898 17 6.44898C16.0473 6.44898 15.2 5.7294 15.2 4.7551Z" fill="white" stroke="#929292"/>
</svg>
