<svg width="18" height="18" viewBox="0 0 18 18" fill="none" xmlns="http://www.w3.org/2000/svg">
<path d="M16.0129 3.90209H8.07656L6.72656 2.10083C6.61775 1.95651 6.47524 1.83919 6.3107 1.75846C6.14615 1.67773 5.96423 1.63589 5.7798 1.63636H1.98695C1.67695 1.63636 1.37966 1.75571 1.16046 1.96817C0.94126 2.18062 0.818115 2.46877 0.818115 2.76922V15.2308C0.818115 15.5312 0.94126 15.8194 1.16046 16.0318C1.37966 16.2443 1.67695 16.3636 1.98695 16.3636H16.0129C16.3229 16.3636 16.6202 16.2443 16.8394 16.0318C17.0586 15.8194 17.1818 15.5312 17.1818 15.2308V5.03496C17.1818 4.7345 17.0586 4.44635 16.8394 4.2339C16.6202 4.02145 16.3229 3.90209 16.0129 3.90209ZM16.0129 15.2308H1.98695V6.16782H6.25902C6.56902 6.16782 6.86631 6.04847 7.08551 5.83601C7.30471 5.62356 7.42786 5.33541 7.42786 5.03496H1.98695V2.76922H5.7798L7.30513 4.80272C7.35953 4.87488 7.43078 4.93354 7.51306 4.9739C7.59533 5.01427 7.68629 5.03519 7.7785 5.03496H16.0129V15.2308Z" fill="#52758E"/>
<path d="M9.08612 13.0909H9.73206C9.78947 13.0909 9.81818 13.0697 9.81818 13.0272V7.42725C9.81818 7.38482 9.78947 7.36361 9.73206 7.36361H9.08612C9.02871 7.36361 9 7.38482 9 7.42725V13.0272C9 13.0697 9.02871 13.0909 9.08612 13.0909Z" fill="#52758E"/>
<path d="M5.81292 10.6364H13.0053C13.0624 10.6364 13.0909 10.6076 13.0909 10.5502V9.9043C13.0909 9.84688 13.0624 9.81817 13.0053 9.81817H5.81292C5.75584 9.81817 5.72729 9.84688 5.72729 9.9043V10.5502C5.72729 10.6076 5.75584 10.6364 5.81292 10.6364Z" fill="#52758E"/>
</svg>
