<svg width="18" height="18" viewBox="0 0 18 18" fill="none" xmlns="http://www.w3.org/2000/svg">
<path d="M15.5833 13.5H13V16.4062C13.2014 16.3281 13.3438 16.2422 13.4271 16.1484L15.3542 13.9805C15.4375 13.8867 15.5139 13.7266 15.5833 13.5ZM12.6667 12H15.6667V1.5H2.33333V16.5H11.6667V13.125C11.6667 12.8125 11.7639 12.5469 11.9583 12.3281C12.1528 12.1094 12.3889 12 12.6667 12ZM17 1.125V13.125C17 13.4375 16.9306 13.7812 16.7917 14.1562C16.6528 14.5312 16.4861 14.8281 16.2917 15.0469L14.375 17.2031C14.1806 17.4219 13.9167 17.6094 13.5833 17.7656C13.25 17.9219 12.9444 18 12.6667 18H2C1.72222 18 1.48611 17.8906 1.29167 17.6719C1.09722 17.4531 1 17.1875 1 16.875V1.125C1 0.8125 1.09722 0.546875 1.29167 0.328125C1.48611 0.109375 1.72222 0 2 0H16C16.2778 0 16.5139 0.109375 16.7083 0.328125C16.9028 0.546875 17 0.8125 17 1.125Z" fill="#52758E"/>
</svg>
