<svg width="18" height="18" viewBox="0 0 18 18" fill="none" xmlns="http://www.w3.org/2000/svg">
<path d="M15.9347 6.4386H15.4721L15.4964 4.7376C15.4935 4.63819 15.4552 4.54309 15.3884 4.4694L11.414 0.1206C11.3821 0.0841164 11.343 0.0545846 11.2992 0.0338384C11.2554 0.0130921 11.2078 0.00157428 11.1593 0L2.84334 0C2.65688 0.00299345 2.47886 0.0782111 2.34675 0.209819C2.21464 0.341427 2.13874 0.519159 2.13504 0.7056V6.4386H1.67154C1.41504 6.4386 1.16754 6.5448 0.987536 6.7338C0.803881 6.92589 0.701926 7.18174 0.703136 7.4475V12.6945C0.703136 13.2507 1.13694 13.7025 1.67154 13.7025H2.13504V17.2935C2.13852 17.4804 2.21457 17.6586 2.34709 17.7905C2.47961 17.9223 2.65822 17.9975 2.84514 18H14.7953C15.1688 18 15.4973 17.6832 15.4973 17.2944V13.7034H15.9356C16.4702 13.7034 16.904 13.2507 16.904 12.6936V7.4466C16.904 7.1802 16.8023 6.9228 16.6205 6.7338C16.5323 6.64098 16.4263 6.56698 16.3087 6.51624C16.1912 6.46551 16.0646 6.4391 15.9365 6.4386H15.9347ZM3.35814 1.2402H9.61854V5.3595C9.61819 5.45225 9.65365 5.54156 9.71754 5.6088C9.74853 5.64138 9.7858 5.66735 9.8271 5.68514C9.8684 5.70293 9.91287 5.71217 9.95784 5.7123H14.2409V6.4386H3.35814V1.2402ZM3.35814 16.7598V13.7025H14.2409V16.7598H3.35814ZM10.865 1.368L11.2115 1.7586L13.5335 4.3263L13.6622 4.482H11.2889C11.1089 4.482 10.9964 4.4523 10.9487 4.392C10.901 4.3335 10.8731 4.239 10.865 4.1103V1.368ZM2.50314 12.8088V7.4088H4.22934C4.88274 7.4088 5.30934 7.4358 5.50734 7.4898C5.81334 7.5708 6.06894 7.7472 6.27504 8.019C6.48024 8.2899 6.58374 8.64 6.58374 9.0702C6.58374 9.4014 6.52434 9.6804 6.40554 9.9072C6.28674 10.1322 6.13554 10.3095 5.95284 10.4382C5.78583 10.5601 5.5961 10.6473 5.39484 10.6947C5.13834 10.746 4.76664 10.7721 4.27974 10.7721H3.57864V12.8088H2.50314ZM3.57864 8.3223V9.855H4.16724C4.59114 9.855 4.87464 9.8262 5.01774 9.7704C5.15605 9.7182 5.27453 9.62397 5.35654 9.50097C5.43854 9.37796 5.47995 9.23235 5.47494 9.0846C5.4815 8.9068 5.42039 8.73312 5.30394 8.5986C5.19157 8.47173 5.03908 8.38723 4.87194 8.3592C4.74414 8.3349 4.48584 8.3232 4.09794 8.3232H3.57864V8.3223ZM7.21464 7.4088H9.18024C9.62394 7.4088 9.96144 7.443 10.1945 7.5123C10.5068 7.605 10.7741 7.7715 10.9973 8.0091C11.2196 8.2476 11.3897 8.5392 11.5058 8.8839C11.6228 9.2295 11.6804 9.6543 11.6804 10.1601C11.6804 10.6047 11.6264 10.9881 11.5166 11.3094C11.3834 11.7027 11.1926 12.0204 10.946 12.2634C10.7597 12.4479 10.5077 12.5919 10.19 12.6954C9.95334 12.771 9.63564 12.8088 9.23874 12.8088H7.21464V7.4088ZM8.29014 8.3223V11.8989H9.09294C9.39354 11.8989 9.61044 11.8818 9.74364 11.8476C9.91824 11.8026 10.0631 11.7288 10.1774 11.6226C10.2926 11.5173 10.3871 11.3436 10.4591 11.1015C10.532 10.8594 10.568 10.53 10.568 10.1124C10.568 9.6948 10.532 9.3744 10.46 9.1512C10.4029 8.95427 10.2977 8.7746 10.154 8.6283C10.0151 8.49865 9.84274 8.41043 9.65634 8.3736C9.50604 8.3394 9.21174 8.3223 8.77434 8.3223H8.29014ZM12.3518 12.8088V7.4088H16.0031V8.3223H13.4273V9.6003H15.6503V10.5138H13.4273V12.8088H12.3518Z" fill="#52758E"/>
</svg>
