<svg width="18" height="18" viewBox="0 0 18 18" fill="none" xmlns="http://www.w3.org/2000/svg">
<path d="M13.9092 6.16756C13.3262 6.16756 12.7883 5.95005 12.3669 5.58681L8.12875 8.84726C8.19971 9.26147 8.19971 9.6859 8.12875 10.1001L12.3669 13.3606C12.7883 12.9973 13.3262 12.7798 13.9092 12.7798C15.2633 12.7798 16.3637 13.95 16.3637 15.3899C16.3637 16.8298 15.2633 18 13.9092 18C12.5551 18 11.4547 16.8298 11.4547 15.3899C11.4547 15.1376 11.4874 14.8962 11.5508 14.6656L7.52534 11.5661C6.92807 12.4079 5.97897 12.9538 4.9092 12.9538C3.10102 12.9538 1.63647 11.3965 1.63647 9.47368C1.63647 7.55091 3.10102 5.99356 4.9092 5.99356C5.97897 5.99356 6.92807 6.5395 7.52534 7.38126L11.5508 4.28177C11.4874 4.05121 11.4547 3.8076 11.4547 3.55746C11.4547 2.11756 12.5551 0.947369 13.9092 0.947369C15.2633 0.947369 16.3637 2.11756 16.3637 3.55746C16.3637 4.99737 15.2633 6.16756 13.9092 6.16756ZM13.9092 16.5209C14.4962 16.5209 14.9728 16.0142 14.9728 15.3899C14.9728 14.7657 14.4962 14.2589 13.9092 14.2589C13.3222 14.2589 12.8456 14.7657 12.8456 15.3899C12.8456 16.0142 13.3222 16.5209 13.9092 16.5209ZM4.9092 7.55961C3.91716 7.55961 3.1092 8.41877 3.1092 9.47368C3.1092 10.5286 3.91716 11.3878 4.9092 11.3878C5.90125 11.3878 6.7092 10.5286 6.7092 9.47368C6.7092 8.41877 5.90125 7.55961 4.9092 7.55961ZM13.9092 2.42642C13.3222 2.42642 12.8456 2.93322 12.8456 3.55746C12.8456 4.18171 13.3222 4.68851 13.9092 4.68851C14.4962 4.68851 14.9728 4.18171 14.9728 3.55746C14.9728 2.93322 14.4962 2.42642 13.9092 2.42642Z" fill="#52758E"/>
</svg>
