<svg width="20" height="20" viewBox="0 0 20 20" fill="none" xmlns="http://www.w3.org/2000/svg">
<g clip-path="url(#clip0_1346_78110)">
<path d="M16.5027 2.72514e-07C15.6033 2.72514e-07 14.6875 0.346098 14.001 1.03498L6.34331 8.72035L1.83088 10.4533L1.39275 10.6347L1.3152 11.1008L0.155117 18.888L0 20L1.10975 19.846L8.87139 18.6818L9.33509 18.604L9.51578 18.1644L11.1404 13.8688L11.5529 13.4813L18.9788 6.02939C20.3096 4.69302 20.3352 2.54854 19.0819 1.16415L18.9788 1.03498C18.6548 0.706888 18.2692 0.446489 17.8444 0.26884C17.4195 0.091192 16.9638 -0.000182119 16.5035 2.72514e-07H16.5027ZM16.5027 1.6303C16.9664 1.6303 17.4309 1.8373 17.817 2.22563C18.591 3.00145 18.591 4.08859 17.817 4.86442L13.666 9.03001L11.0356 6.39122L15.1875 2.22563C15.5736 1.8373 16.0381 1.6303 16.5018 1.6303H16.5027ZM9.84995 7.58187L12.4803 10.2207L10.9844 11.7218L8.35405 9.08218L9.84995 7.58187ZM7.09084 10.195H7.11642L9.77321 12.8594L8.14778 17.1294L3.32677 17.8274L5.54379 15.6026C5.58917 15.6059 5.62795 15.6282 5.67251 15.6282C6.40106 15.6282 7.0141 15.0404 7.0141 14.3093C7.0141 13.5781 6.40106 12.9638 5.67251 12.9638C4.94478 12.9638 4.35813 13.5781 4.35813 14.3093C4.35813 14.354 4.38041 14.3929 4.38371 14.4384L2.16587 16.6632L2.86224 11.8253L7.09084 10.195Z" fill="#929292"/>
</g>
<defs>
<clipPath id="clip0_1346_78110">
<rect width="20" height="20" fill="white"/>
</clipPath>
</defs>
</svg>
