<svg width="20" height="20" viewBox="0 0 20 20" fill="none" xmlns="http://www.w3.org/2000/svg">
<path d="M13.4362 5.81127L13.759 5.56292L14.0676 5.82886C14.4508 6.15925 14.9343 6.35285 15.4547 6.35285C16.6546 6.35285 17.682 5.30588 17.682 3.95274C17.682 2.5996 16.6546 1.55263 15.4547 1.55263C14.2548 1.55263 13.2274 2.5996 13.2274 3.95274C13.2274 4.18711 13.2581 4.41313 13.3164 4.62493L13.4054 4.94878L13.1393 5.15369L8.66658 8.59757L8.25463 8.91476L7.95376 8.49074C7.37499 7.67505 6.46653 7.15951 5.45472 7.15951C3.75027 7.15951 2.31836 8.63666 2.31836 10.5263C2.31836 12.416 3.75027 13.8931 5.45472 13.8931C6.46653 13.8931 7.37499 13.3776 7.95376 12.5619L8.25463 12.1379L8.66658 12.4551L13.1393 15.8989L13.4054 16.1039L13.3164 16.4277C13.2581 16.6397 13.2274 16.8633 13.2274 17.0999C13.2274 18.453 14.2548 19.5 15.4547 19.5C16.6546 19.5 17.682 18.453 17.682 17.0999C17.682 15.7468 16.6546 14.6998 15.4547 14.6998C14.9343 14.6998 14.4508 14.8934 14.0676 15.2238L13.759 15.4897L13.4362 15.2414L8.72712 11.6186L8.48829 11.4349L8.53918 11.1379C8.60845 10.7336 8.60845 10.3191 8.53918 9.91472L8.48829 9.61773L8.72712 9.43399L13.4362 5.81127ZM17.1365 17.0999C17.1365 18.0403 16.4116 18.8566 15.4547 18.8566C14.4978 18.8566 13.7729 18.0403 13.7729 17.0999C13.7729 16.1595 14.4978 15.3432 15.4547 15.3432C16.4116 15.3432 17.1365 16.1595 17.1365 17.0999ZM2.95472 10.5263C2.95472 9.10743 4.04781 7.89957 5.45472 7.89957C6.86164 7.89957 7.95472 9.10743 7.95472 10.5263C7.95472 11.9452 6.86164 13.1531 5.45472 13.1531C4.04781 13.1531 2.95472 11.9452 2.95472 10.5263ZM13.7729 3.95274C13.7729 3.01238 14.4978 2.19603 15.4547 2.19603C16.4116 2.19603 17.1365 3.01237 17.1365 3.95274C17.1365 4.8931 16.4116 5.70945 15.4547 5.70945C14.4978 5.70945 13.7729 4.8931 13.7729 3.95274Z" fill="white" stroke="#52758E"/>
</svg>
