<svg width="20" height="20" viewBox="0 0 20 20" fill="none" xmlns="http://www.w3.org/2000/svg">
<path d="M8.47133 4.0691L8.62132 4.26923H8.87143H18.5714C18.8227 4.26923 19.0606 4.36611 19.2336 4.53381L19.5816 4.17478L19.2336 4.53381C19.4061 4.701 19.5 4.92437 19.5 5.15385V17.6154C19.5 17.8449 19.4061 18.0682 19.2336 18.2354C19.0606 18.4031 18.8227 18.5 18.5714 18.5H1.42857C1.17735 18.5 0.939432 18.4031 0.766406 18.2354C0.59391 18.0682 0.5 17.8449 0.5 17.6154V2.38462C0.5 2.15514 0.59391 1.93177 0.766405 1.76458C0.939432 1.59688 1.17734 1.5 1.42857 1.5L6.06429 1.50001L6.06554 1.5C6.21468 1.49963 6.36119 1.5335 6.49293 1.59813C6.62442 1.66264 6.73678 1.75559 6.8218 1.86819C6.82193 1.86836 6.82205 1.86853 6.82218 1.8687L8.47133 4.0691ZM18.5714 18.1154H19.0714V17.6154V5.15385V4.65385H18.5714H8.57857L8.50714 4.65385L8.50422 4.65385C8.46838 4.65369 8.43364 4.64541 8.40293 4.63034C8.37194 4.61514 8.34662 4.59383 8.32807 4.56934C8.32799 4.56922 8.3279 4.56911 8.32782 4.569L6.46427 2.08459L6.31427 1.88462H6.06429H1.42857H0.928571V2.38462V5.15385V5.65385H1.42857H7.41593C7.38539 5.6963 7.35074 5.7365 7.31217 5.77389C7.13914 5.94159 6.90123 6.03846 6.65 6.03846H1.42857H0.928571V6.53846V17.6154V18.1154H1.42857H18.5714Z" fill="white" stroke="#929292"/>
<mask id="path-2-inside-1_1375_61938" fill="white">
<path d="M10.1053 15H10.8947C10.9649 15 11 14.9741 11 14.9222V8.07778C11 8.02593 10.9649 8 10.8947 8H10.1053C10.0351 8 10 8.02593 10 8.07778V14.9222C10 14.9741 10.0351 15 10.1053 15Z"/>
</mask>
<path d="M10.1053 15H10.8947C10.9649 15 11 14.9741 11 14.9222V8.07778C11 8.02593 10.9649 8 10.8947 8H10.1053C10.0351 8 10 8.02593 10 8.07778V14.9222C10 14.9741 10.0351 15 10.1053 15Z" fill="white"/>
<path d="M10.1053 14H10.8947V16H10.1053V14ZM10.8947 14C10.836 14 10.6103 14.0057 10.3794 14.1763C10.0919 14.3887 10 14.6985 10 14.9222H12C12 15.1978 11.8906 15.5464 11.5679 15.7848C11.3019 15.9814 11.0237 16 10.8947 16V14ZM10 14.9222V8.07778H12V14.9222H10ZM10 8.07778C10 8.3015 10.0919 8.61126 10.3794 8.82371C10.6103 8.99435 10.836 9 10.8947 9V7C11.0237 7 11.3019 7.01862 11.5679 7.21518C11.8906 7.45356 12 7.80221 12 8.07778H10ZM10.8947 9H10.1053V7H10.8947V9ZM10.1053 9C10.164 9 10.3897 8.99435 10.6206 8.82371C10.9081 8.61126 11 8.3015 11 8.07778H9C9 7.80221 9.10943 7.45356 9.43205 7.21518C9.69807 7.01862 9.97632 7 10.1053 7V9ZM11 8.07778V14.9222H9V8.07778H11ZM11 14.9222C11 14.6985 10.9081 14.3887 10.6206 14.1763C10.3897 14.0057 10.164 14 10.1053 14V16C9.97632 16 9.69807 15.9814 9.43205 15.7848C9.10943 15.5464 9 15.1978 9 14.9222H11Z" fill="#929292" mask="url(#path-2-inside-1_1375_61938)"/>
<mask id="path-4-inside-2_1375_61938" fill="white">
<path d="M7.0814 12H13.9186C13.9729 12 14 11.9649 14 11.8947V11.1053C14 11.0351 13.9729 11 13.9186 11H7.0814C7.02713 11 7 11.0351 7 11.1053V11.8947C7 11.9649 7.02713 12 7.0814 12Z"/>
</mask>
<path d="M7.0814 12H13.9186C13.9729 12 14 11.9649 14 11.8947V11.1053C14 11.0351 13.9729 11 13.9186 11H7.0814C7.02713 11 7 11.0351 7 11.1053V11.8947C7 11.9649 7.02713 12 7.0814 12Z" fill="white"/>
<path d="M7.0814 11H13.9186V13H7.0814V11ZM13.9186 11C13.713 11 13.4069 11.0796 13.1886 11.362C13.008 11.5955 13 11.8288 13 11.8947H15C15 12.0309 14.9785 12.3168 14.7707 12.5854C14.5253 12.9028 14.1785 13 13.9186 13V11ZM13 11.8947V11.1053H15V11.8947H13ZM13 11.1053C13 11.1712 13.008 11.4045 13.1886 11.638C13.4069 11.9204 13.713 12 13.9186 12V10C14.1785 10 14.5253 10.0972 14.7707 10.4146C14.9785 10.6832 15 10.9691 15 11.1053H13ZM13.9186 12H7.0814V10H13.9186V12ZM7.0814 12C7.287 12 7.59311 11.9204 7.81143 11.638C7.99202 11.4045 8 11.1712 8 11.1053H6C6 10.9691 6.02154 10.6832 6.22927 10.4146C6.47472 10.0972 6.82152 10 7.0814 10V12ZM8 11.1053V11.8947H6V11.1053H8ZM8 11.8947C8 11.8288 7.99202 11.5955 7.81143 11.362C7.59311 11.0796 7.287 11 7.0814 11V13C6.82152 13 6.47472 12.9028 6.22927 12.5854C6.02154 12.3168 6 12.0309 6 11.8947H8Z" fill="#929292" mask="url(#path-4-inside-2_1375_61938)"/>
</svg>
