<svg width="22" height="20" viewBox="0 0 22 20" fill="none" xmlns="http://www.w3.org/2000/svg">
<path d="M19.6446 14.8864H20.1446V14.3864H19.6446V14.8864ZM19.6651 9.9395V10.4395H20.1651V9.9395H19.6651ZM2.33492 9.9395H1.83492V10.4395H2.33492V9.9395ZM2.35478 14.8864V14.3864H1.85478V14.8864H2.35478ZM3.72217 8.83761V4.42829H2.72217V8.83761H3.72217ZM3.72217 4.42829C3.72217 4.47048 3.68868 4.5 3.65254 4.5V3.5C3.14195 3.5 2.72217 3.91266 2.72217 4.42829H3.72217ZM3.65254 4.5H18.3474V3.5H3.65254V4.5ZM18.3474 4.5C18.3114 4.5 18.2777 4.46999 18.2777 4.42829H19.2777C19.2777 3.91314 18.8591 3.5 18.3474 3.5V4.5ZM18.2777 4.42829V8.83761H19.2777V4.42829H18.2777ZM4.83301 8.82308V7.87007H3.83301V8.82308H4.83301ZM4.83301 7.87007C4.83301 7.68379 4.88221 7.53832 4.93539 7.45497C4.99233 7.36572 5.00971 7.40255 4.95029 7.40255V6.40255C4.55014 6.40255 4.25887 6.65611 4.09236 6.91711C3.92208 7.184 3.83301 7.52229 3.83301 7.87007H4.83301ZM4.95029 7.40255H9.27128V6.40255H4.95029V7.40255ZM9.27128 7.40255C9.21186 7.40255 9.22924 7.36572 9.28618 7.45497C9.33936 7.53832 9.38856 7.68379 9.38856 7.87007H10.3886C10.3886 7.52229 10.2995 7.184 10.1292 6.91711C9.9627 6.65611 9.67144 6.40255 9.27128 6.40255V7.40255ZM9.38856 7.87007V8.83759H10.3886V7.87007H9.38856ZM12.6108 8.82308V7.87007H11.6108V8.82308H12.6108ZM12.6108 7.87007C12.6108 7.68379 12.66 7.53832 12.7132 7.45497C12.7702 7.36572 12.7875 7.40255 12.7281 7.40255V6.40255C12.328 6.40255 12.0367 6.65611 11.8702 6.91711C11.6999 7.184 11.6108 7.52229 11.6108 7.87007H12.6108ZM12.7281 7.40255H17.0491V6.40255H12.7281V7.40255ZM17.0491 7.40255C16.9897 7.40255 17.0071 7.36572 17.064 7.45497C17.1172 7.53832 17.1664 7.68379 17.1664 7.87007H18.1664C18.1664 7.52229 18.0773 7.184 17.907 6.91711C17.7405 6.65611 17.4493 6.40255 17.0491 6.40255V7.40255ZM17.1664 7.87007V8.83759H18.1664V7.87007H17.1664ZM9.721 15.3864H19.6446V14.3864H9.721V15.3864ZM19.1446 14.8864V16.0263H20.1446V14.8864H19.1446ZM19.1446 16.0263C19.1446 16.6884 19.7542 17.0778 20.3064 17.0778V16.0778C20.2347 16.0778 20.184 16.0533 20.1586 16.0321C20.1341 16.0117 20.1446 16.0074 20.1446 16.0263H19.1446ZM20.3064 17.0778H20.3382V16.0778H20.3064V17.0778ZM20.3382 17.0778C20.8904 17.0778 21.5 16.6884 21.5 16.0263H20.5C20.5 16.0074 20.5104 16.0117 20.486 16.0321C20.4606 16.0533 20.4098 16.0778 20.3382 16.0778V17.0778ZM21.5 16.0263V9.38911H20.5V16.0263H21.5ZM21.5 9.38911C21.5 8.72703 20.8904 8.33762 20.3382 8.33762V9.33762C20.4098 9.33762 20.4606 9.36212 20.486 9.38333C20.5104 9.40368 20.5 9.40796 20.5 9.38911H21.5ZM20.3382 8.33762H20.3269V9.33762H20.3382V8.33762ZM20.3269 8.33762C19.7737 8.33762 19.1651 8.72732 19.1651 9.38911H20.1651C20.1651 9.40759 20.1548 9.40335 20.179 9.38322C20.2042 9.36221 20.2548 9.33762 20.3269 9.33762V8.33762ZM19.1651 9.38911V9.9395H20.1651V9.38911H19.1651ZM19.6651 9.4395H10.1757V10.4395H19.6651V9.4395ZM10.1757 10.4395H10.907V9.4395H10.1757V10.4395ZM10.907 9.4395H2.33492V10.4395H10.907V9.4395ZM2.83492 9.9395V9.38911H1.83492V9.9395H2.83492ZM2.83492 9.38911C2.83492 8.72703 2.2253 8.33762 1.67309 8.33762V9.33762C1.74476 9.33762 1.79547 9.36212 1.82093 9.38333C1.84535 9.40368 1.83492 9.40796 1.83492 9.38911H2.83492ZM1.67309 8.33762H1.66184V9.33762H1.67309V8.33762ZM1.66184 8.33762C1.10963 8.33762 0.5 8.72703 0.5 9.38911H1.5C1.5 9.40796 1.48957 9.40368 1.514 9.38333C1.53945 9.36212 1.59016 9.33762 1.66184 9.33762V8.33762ZM0.5 9.38911V16.0263H1.5V9.38911H0.5ZM0.5 16.0263C0.5 16.6884 1.10963 17.0778 1.66184 17.0778V16.0778C1.59016 16.0778 1.53945 16.0533 1.514 16.0321C1.48957 16.0117 1.5 16.0074 1.5 16.0263H0.5ZM1.66184 17.0778H1.69294V16.0778H1.66184V17.0778ZM1.69294 17.0778C2.24616 17.0778 2.85478 16.6881 2.85478 16.0263H1.85478C1.85478 16.0078 1.86504 16.0121 1.8409 16.0322C1.8157 16.0532 1.7651 16.0778 1.69294 16.0778V17.0778ZM2.85478 16.0263V14.8864H1.85478V16.0263H2.85478ZM2.35478 15.3864H11.3061V14.3864H2.35478V15.3864Z" fill="#929292"/>
</svg>
