<svg width="33" height="33" viewBox="0 0 33 33" fill="" xmlns="http://www.w3.org/2000/svg">
<path d="M29.5659 22.1418C28.3939 21.0398 26.201 19.3822 26.201 13.9522C26.201 9.82794 22.8961 6.52643 18.4399 5.71644V4.61027C18.4399 3.67237 17.5713 2.91174 16.5 2.91174C15.4287 2.91174 14.56 3.67237 14.56 4.61027V5.71644C10.1038 6.52643 6.79898 9.82794 6.79898 13.9522C6.79898 19.3822 4.60606 21.0398 3.43408 22.1418C3.07011 22.4841 2.90875 22.8933 2.91179 23.2941C2.91846 24.1646 3.69917 24.9926 4.85902 24.9926H28.1409C29.3008 24.9926 30.0821 24.1646 30.0882 23.2941C30.0912 22.8933 29.9298 22.4836 29.5659 22.1418ZM7.00826 22.4448C8.2955 20.9602 9.70285 18.4995 9.70952 13.983C9.70952 13.9724 9.70588 13.9628 9.70588 13.9522C9.70588 10.6687 12.7475 8.00733 16.5 8.00733C20.2525 8.00733 23.2941 10.6687 23.2941 13.9522C23.2941 13.9628 23.2904 13.9724 23.2904 13.983C23.2971 18.5 24.7045 20.9607 25.9917 22.4448H7.00826ZM16.5 30.0882C18.6425 30.0882 20.3805 28.5675 20.3805 26.6912H12.6195C12.6195 28.5675 14.3574 30.0882 16.5 30.0882Z" fill="#929292"/>
<path d="M7.00826 22.4448C8.2955 20.9602 9.70285 18.4995 9.70952 13.983C9.70952 13.9724 9.70588 13.9628 9.70588 13.9522C9.70588 10.6687 12.7475 8.00733 16.5 8.00733C20.2525 8.00733 23.2941 10.6687 23.2941 13.9522C23.2941 13.9628 23.2904 13.9724 23.2904 13.983C23.2971 18.5 24.7045 20.9607 25.9917 22.4448H7.00826Z" fill="#929292" stroke="#929292" />
</svg>
