<svg width="33" height="33" viewBox="0 0 33 33" fill="none" xmlns="http://www.w3.org/2000/svg">
<path d="M30.4427 22.5203C29.192 21.3445 26.852 19.5756 26.852 13.7812C26.852 9.38027 23.3254 5.85723 18.5702 4.99289V3.8125C18.5702 2.81166 17.6432 2 16.5 2C15.3569 2 14.4299 2.81166 14.4299 3.8125V4.99289C9.67471 5.85723 6.14811 9.38027 6.14811 13.7812C6.14811 19.5756 3.80805 21.3445 2.55743 22.5203C2.16904 22.8857 1.99685 23.3224 2.00009 23.75C2.00721 24.6789 2.84031 25.5625 4.07798 25.5625H28.9221C30.1598 25.5625 30.9935 24.6789 31 23.75C31.0032 23.3224 30.8311 22.8851 30.4427 22.5203ZM5 23.5C6.37361 21.9158 8.99288 18.8196 9 14C9 14.5 9 13.5 9 14C9 10.4962 12.4957 7 16.5 7C20.5044 7 24 10.4962 24 14C24.0071 18.8201 26.1264 21.9163 27.5 23.5H5ZM16.5 31C18.7864 31 20.6409 29.3772 20.6409 27.375H12.3591C12.3591 29.3772 14.2137 31 16.5 31Z" fill="#929292"/>
</svg>
