<svg width="13" height="11" viewBox="0 0 13 11" fill="none" xmlns="http://www.w3.org/2000/svg">
<path d="M10.9792 0.350702C11.2039 0.123273 11.5028 -0.00245916 11.813 3.64524e-05C12.1232 0.00253207 12.4203 0.133061 12.6417 0.364078C12.8631 0.595096 12.9914 0.908535 12.9996 1.23825C13.0078 1.56797 12.8952 1.88819 12.6856 2.13132L6.32264 10.5935C6.21323 10.7188 6.08117 10.8194 5.93437 10.8892C5.78757 10.959 5.62904 10.9966 5.46826 10.9998C5.30748 11.0029 5.14775 10.9716 4.99862 10.9076C4.8495 10.8436 4.71403 10.7483 4.60033 10.6274L0.380675 6.14026C0.263165 6.02382 0.168913 5.8834 0.103542 5.72739C0.0381707 5.57137 0.00301963 5.40296 0.000186137 5.23218C-0.00264735 5.06141 0.0268948 4.89177 0.0870496 4.7334C0.147204 4.57503 0.23674 4.43117 0.350315 4.31039C0.463889 4.18962 0.599176 4.09441 0.748105 4.03044C0.897034 3.96647 1.05655 3.93506 1.21715 3.93807C1.37774 3.94108 1.53612 3.97846 1.68283 4.04798C1.82955 4.11749 1.96159 4.21772 2.07109 4.34268L5.41045 7.89205L10.9489 0.388011C10.9589 0.374954 10.9696 0.362498 10.9808 0.350702H10.9792Z" fill="white"/>
</svg>
