<svg width="18" height="18" viewBox="0 0 18 18" fill="none" xmlns="http://www.w3.org/2000/svg">
<path d="M14.0625 7.3125C14.0625 5.96984 13.5291 4.68217 12.5797 3.73277C11.6303 2.78337 10.3427 2.25 9 2.25C7.65734 2.25 6.36967 2.78337 5.42027 3.73277C4.47087 4.68217 3.9375 5.96984 3.9375 7.3125C3.9375 9.38925 5.59912 12.096 9 15.3383C12.4009 12.096 14.0625 9.38925 14.0625 7.3125ZM9 16.875C4.87462 13.1254 2.8125 9.93713 2.8125 7.3125C2.8125 5.67147 3.4644 4.09766 4.62478 2.93728C5.78516 1.7769 7.35897 1.125 9 1.125C10.641 1.125 12.2148 1.7769 13.3752 2.93728C14.5356 4.09766 15.1875 5.67147 15.1875 7.3125C15.1875 9.93713 13.1254 13.1254 9 16.875Z" fill="white"/>
<path d="M9 7.875C9.29837 7.875 9.58452 7.75647 9.7955 7.5455C10.0065 7.33452 10.125 7.04837 10.125 6.75C10.125 6.45163 10.0065 6.16548 9.7955 5.95451C9.58452 5.74353 9.29837 5.625 9 5.625C8.70163 5.625 8.41548 5.74353 8.2045 5.95451C7.99353 6.16548 7.875 6.45163 7.875 6.75C7.875 7.04837 7.99353 7.33452 8.2045 7.5455C8.41548 7.75647 8.70163 7.875 9 7.875ZM9 9C8.40326 9 7.83097 8.76295 7.40901 8.34099C6.98705 7.91903 6.75 7.34674 6.75 6.75C6.75 6.15326 6.98705 5.58097 7.40901 5.15901C7.83097 4.73705 8.40326 4.5 9 4.5C9.59674 4.5 10.169 4.73705 10.591 5.15901C11.0129 5.58097 11.25 6.15326 11.25 6.75C11.25 7.34674 11.0129 7.91903 10.591 8.34099C10.169 8.76295 9.59674 9 9 9ZM15.075 12.375L16.875 16.875H11.8125V15.75H6.1875V16.875H1.125L2.925 12.375H15.075ZM13.8634 12.375H4.13663L2.78663 15.75H15.2134L13.8634 12.375Z" fill="white"/>
</svg>
