<svg width="33" height="33" viewBox="0 0 33 33" fill="none" xmlns="http://www.w3.org/2000/svg">
<g clip-path="url(#clip0_1362_63238)">
<path d="M28.4671 6.98223H14.9245L12.6208 3.8775C12.4351 3.62874 12.192 3.42652 11.9112 3.28738C11.6304 3.14823 11.32 3.07611 11.0052 3.07691H4.53308C4.0041 3.07691 3.49679 3.28264 3.12275 3.64883C2.74871 4.01503 2.53857 4.51169 2.53857 5.02957V26.5089C2.53857 27.0267 2.74871 27.5234 3.12275 27.8896C3.49679 28.2558 4.0041 28.4615 4.53308 28.4615H28.4671C28.9961 28.4615 29.5034 28.2558 29.8775 27.8896C30.2515 27.5234 30.4617 27.0267 30.4617 26.5089V8.9349C30.4617 8.41702 30.2515 7.92035 29.8775 7.55416C29.5034 7.18796 28.9961 6.98223 28.4671 6.98223ZM28.4671 26.5089H4.53308V10.8876H11.823C12.352 10.8876 12.8593 10.6818 13.2333 10.3156C13.6074 9.94944 13.8175 9.45278 13.8175 8.9349H4.53308V5.02957H11.0052L13.6081 8.5346C13.7009 8.65898 13.8225 8.76009 13.9629 8.82966C14.1033 8.89924 14.2585 8.9353 14.4159 8.9349H28.4671V26.5089Z" fill="#929292"/>
</g>
<defs>
<clipPath id="clip0_1362_63238">
<rect width="33" height="33" fill="white"/>
</clipPath>
</defs>
</svg>
