<svg width="249" height="262" viewBox="0 0 249 262" fill="none" xmlns="http://www.w3.org/2000/svg">
<circle cx="124.247" cy="143.155" r="118.845" fill="#F0F0F0"/>
<path d="M7.75991 218.863C7.54651 230.426 15.7524 238.845 36.9947 239.679C58.237 240.513 202.277 240.319 214.479 240.106C226.682 239.892 240.766 236.11 240.979 219.698C241.192 203.286 218.902 199.503 218.902 199.503C218.902 199.503 39.73 199.716 32.3777 200.143C25.0253 200.57 8.0121 204.353 7.75991 218.863Z" fill="#B7D118"/>
<path d="M183.266 206.409C183.266 206.409 229.494 206.719 231.725 206.254C233.956 205.769 235.741 203.034 236.051 200.318C235.896 190.56 224.683 189.939 224.683 189.939C224.683 189.939 226.546 183.751 221.424 178.629C214.712 171.277 204.838 174.264 204.838 174.264C204.838 174.264 203.247 168.988 198.591 166.097C193.955 163.226 183.712 164.022 183.712 164.022L183.266 206.409ZM50.1668 178.435C50.1668 178.435 44.2111 175.7 39.3613 177.679C32.009 180.686 32.3193 185.768 30.36 187.728C28.4201 189.667 17.8668 188.969 15.0539 198.067C13.8512 201.967 14.8987 205.575 18.1966 205.575C21.4945 205.575 45.9377 204.818 45.9377 204.818L50.1668 178.435Z" fill="#5A9821"/>
<path d="M45.9766 173.042C45.9766 173.042 46.1318 184.74 45.9766 187.146C45.8214 189.551 43.8815 197.796 42.3683 200.783C40.8746 203.79 40.5642 206.487 42.6593 206.933C44.7544 207.379 58.5474 206.933 58.5474 206.933L56.3165 173.042H45.9766Z" fill="#875B50"/>
<path d="M125.727 77.772L54.6675 149.162L55.2301 205.769L108.035 214.111L195.565 207.573L195.778 143.458L125.727 77.772Z" fill="#FFF3E1"/>
<path d="M52.0098 203.577L56.9178 200.861V147.59L52.359 150.636C52.359 150.636 52.8633 203.577 52.0098 203.577ZM193.101 150.461V200.531L198.009 203.247V152.324L193.101 150.461Z" fill="#5F4E47"/>
<path d="M126.212 85.396L52.3589 154.516V137.095L126.29 67.0636L198.009 141.324V156.048L126.212 85.396Z" fill="#BCAA93"/>
<path d="M45.1034 134.088L40.7773 142.081L52.3976 141.906C52.3976 141.906 124.854 71.4284 126.425 71.3508C128.307 71.2732 197.97 143.128 197.97 143.128L208.271 142.973L130.984 59.7112L119.636 58.974L45.1034 134.088Z" fill="#929292"/>
<path d="M31.7374 140.102C30.5346 141.577 31.718 142.372 32.7074 142.372C33.6967 142.372 45.0453 142.042 45.0453 142.042L123.283 65.919C123.283 65.919 125.087 64.0761 126.367 64.1343C127.764 64.2119 129.568 65.9578 129.568 65.9578L208.175 143.012C208.175 143.012 217.137 143.031 218.573 142.682C220.125 142.294 219.329 140.839 217.428 138.783C216.031 137.27 136.533 58.6443 135.233 57.2863C131.334 53.2513 129.413 50.9039 125.727 51.0591C122.022 51.2143 119.83 53.9496 116.125 57.3639C115.019 58.4115 32.2612 139.462 31.7374 140.102Z" fill="#52758E"/>
<path d="M171.684 167.688H187.708V154.341C187.708 151.858 185.691 149.86 183.227 149.86H171.684V167.688ZM166.854 167.688V149.86H154.341C151.858 149.86 149.86 151.878 149.86 154.341V167.688H166.854ZM166.854 172.732H149.86V185.244C149.86 187.728 151.878 189.726 154.341 189.726H166.854V172.732ZM171.684 172.732V189.726H183.227C185.71 189.726 187.708 187.708 187.708 185.244V172.732H171.684ZM82.9517 167.688H98.9756V154.341C98.9756 151.858 96.958 149.86 94.4943 149.86H82.9517V167.688ZM78.1213 167.688V149.86H65.6087C63.1256 149.86 61.1274 151.878 61.1274 154.341V167.688H78.1213ZM78.1213 172.732H61.1274V185.244C61.1274 187.728 63.145 189.726 65.6087 189.726H78.1213V172.732ZM82.9517 172.732V189.726H94.4943C96.9774 189.726 98.9756 187.708 98.9756 185.244V172.732H82.9517Z" fill="#A6CFD5"/>
<path d="M104.194 208.174C104.194 208.174 103.961 169.492 104.194 159.734C104.427 149.976 113.602 141.538 124.195 141.906C137.328 142.352 144.079 149.744 144.564 159.269C145.049 168.794 145.049 208.795 145.049 208.795L104.194 208.174Z" fill="#52758E"/>
<path d="M109.102 210.27C109.102 210.27 108.908 169.046 109.102 161.422C109.335 151.955 116.474 146.989 124.757 147.474C134.399 148.017 139.171 153.158 139.539 160.607C139.908 168.057 139.908 210.308 139.908 210.308L109.102 210.27Z" fill="#929292"/>
<path d="M134.923 176.67C134.884 169.88 134.826 163.905 134.729 162.062C134.477 157.135 130.985 153.294 124.175 153.061C118.685 152.867 114.165 157.154 114.03 162.217C113.991 164.08 113.991 169.938 114.03 176.573L134.923 176.67ZM114.107 184.274C114.165 193.353 114.243 201.714 114.243 201.714L134.981 201.773C134.981 201.773 134.981 193.45 134.942 184.352L114.107 184.274Z" fill="#52758E"/>
<path d="M135 180.162C134.923 182.354 135.815 184.158 138.415 184.158C141.014 184.158 141.984 182.936 142.159 180.569C142.314 178.455 140.859 176.573 138.415 176.747C135.97 176.903 135.058 178.61 135 180.162Z" fill="#FFBA02"/>
<path d="M149.239 220.997C149.239 220.997 166.097 221.075 178.397 221.114C191.026 221.133 198.455 220.823 200.725 219.581C202.432 218.65 202.917 202.937 195.216 198.591C187.611 194.304 182.141 197.408 179.464 197.679C175.913 198.029 174.206 195.487 168.192 195.332C154.788 194.983 150.791 206.099 150.791 206.099L149.239 220.997ZM50.6712 220.066C52.2425 221.56 61.8646 221.017 74.9786 220.92C88.0925 220.823 98.7816 220.9 98.7816 220.9L103.961 208.233L98.6458 205.924C98.6458 205.924 98.4712 198.863 90.1101 196.612C84.3291 195.06 79.2852 197.621 74.4354 197.718C69.5661 197.815 67.1218 195.798 61.7094 197.078C56.6656 198.281 51.8157 201.773 50.225 208.407C49.1192 213.005 49.3908 218.863 50.6712 220.066Z" fill="#728037"/>
<path d="M97.54 234.402L97.637 220.9H98.6264L98.607 205.866H150.946L150.772 220.9H151.936V234.053C151.936 234.034 97.54 234.48 97.54 234.402Z" fill="#B0B0B0"/>
<path d="M151.955 228.505V234.034L97.5205 234.402L97.5787 228.447L151.955 228.505ZM98.6069 215.042L150.888 215.081V220.881L98.6069 220.9V215.042Z" fill="#9B9B9B"/>
<path d="M155.583 209.591C155.66 211.201 156.747 212.733 158.997 212.733C161.247 212.733 162.314 210.948 162.411 209.513C162.508 208.077 161.422 205.924 158.919 206.021C156.397 206.099 155.486 207.786 155.583 209.591ZM167.416 202.975C167.261 204.508 168.755 206.642 170.908 206.39C173.061 206.137 174.128 204.605 173.954 202.801C173.779 201.016 171.975 200.104 170.54 200.104C169.123 200.104 167.591 201.268 167.416 202.975ZM186.505 211.55C186.622 213.606 187.572 214.964 189.919 214.964C192.247 214.964 193.237 213.276 193.237 211.744C193.237 209.494 192.073 208.155 189.745 208.155C187.417 208.155 186.428 209.862 186.505 211.55Z" fill="#FDB900"/>
<path d="M58.4113 210.211C56.258 210.386 55.191 212.093 55.2686 213.626C55.3656 215.158 56.4326 216.943 58.4113 216.768C60.39 216.594 61.7286 215.43 61.6316 213.626C61.5734 212.268 60.6422 210.037 58.4113 210.211ZM73.4652 200.706C71.7192 200.706 70.3225 202.491 70.3225 203.655C70.3225 204.818 71.2149 206.972 73.4652 206.875C75.7155 206.778 76.4139 205.168 76.5109 203.558C76.6079 201.947 74.9007 200.706 73.4652 200.706ZM77.5003 212.016C77.3451 213.529 78.315 215.779 80.7206 215.682C83.1455 215.585 83.9408 213.626 83.8632 212.093C83.7662 210.561 82.2531 209.222 80.7206 209.145C79.2074 209.048 77.6749 210.211 77.5003 212.016ZM86.8313 206.623C86.9089 207.884 87.6461 209.668 89.78 209.397C91.9334 209.125 92.1856 207.864 92.108 206.526C92.011 204.915 90.847 204.101 89.4115 204.101C87.9759 204.101 86.7343 205.284 86.8313 206.623Z" fill="#FEB800"/>
</svg>
