<svg width="177" height="187" viewBox="0 0 177 187" fill="none" xmlns="http://www.w3.org/2000/svg">
<ellipse cx="88.5662" cy="102.175" rx="84.7146" ry="84.8247" fill="white"/>
<path d="M5.53121 156.212C5.3791 164.464 11.2284 170.473 26.3702 171.069C41.512 171.664 144.186 171.526 152.884 171.373C161.582 171.221 171.621 168.521 171.773 156.807C171.925 145.093 156.037 142.393 156.037 142.393C156.037 142.393 28.32 142.546 23.0791 142.85C17.8382 143.155 5.71097 145.855 5.53121 156.212Z" fill="#B7D118"/>
<path d="M130.634 147.322C130.634 147.322 163.586 147.544 165.177 147.212C166.767 146.866 168.039 144.913 168.26 142.975C168.15 136.01 160.157 135.567 160.157 135.567C160.157 135.567 161.485 131.15 157.834 127.495C153.049 122.247 146.011 124.379 146.011 124.379C146.011 124.379 144.877 120.613 141.558 118.55C138.253 116.501 130.952 117.069 130.952 117.069L130.634 147.322ZM35.7593 127.356C35.7593 127.356 31.5141 125.404 28.057 126.816C22.8162 128.963 23.0374 132.59 21.6408 133.989C20.258 135.373 12.7355 134.875 10.7304 141.369C9.87305 144.152 10.6198 146.727 12.9706 146.727C15.3213 146.727 32.7448 146.187 32.7448 146.187L35.7593 127.356Z" fill="#5A9821"/>
<path d="M32.7729 123.507C32.7729 123.507 32.8835 131.857 32.7729 133.573C32.6622 135.29 31.2794 141.175 30.2008 143.307C29.1361 145.453 28.9148 147.378 30.4083 147.696C31.9017 148.015 41.7335 147.696 41.7335 147.696L40.1433 123.507H32.7729Z" fill="#875B50"/>
<path d="M89.6202 55.509L38.9678 106.463L39.3688 146.866L77.0089 152.819L139.401 148.153L139.554 102.392L89.6202 55.509Z" fill="#FFF3E1"/>
<path d="M37.0732 145.301L40.5718 143.362V105.341L37.3221 107.515C37.3221 107.515 37.6817 145.301 37.0732 145.301ZM137.645 107.39V143.127L141.144 145.066V108.72L137.645 107.39Z" fill="#5F4E47"/>
<path d="M89.9659 60.9505L37.3223 110.284V97.8504L90.0213 47.866L141.144 100.869V111.378L89.9659 60.9505Z" fill="#BCAA93"/>
<path d="M32.1506 95.7042L29.0669 101.409L37.3499 101.284C37.3499 101.284 88.998 50.9812 90.1181 50.9259C91.4594 50.8705 141.116 102.156 141.116 102.156L148.459 102.046L93.3677 42.6182L85.2782 42.092L32.1506 95.7042Z" fill="#929292"/>
<path d="M22.6228 99.9965C21.7654 101.049 22.609 101.617 23.3142 101.617C24.0194 101.617 32.1089 101.381 32.1089 101.381L87.8777 47.049C87.8777 47.049 89.1637 45.7337 90.0764 45.7752C91.072 45.8306 92.358 47.0767 92.358 47.0767L148.39 102.073C148.39 102.073 154.778 102.087 155.801 101.838C156.908 101.561 156.341 100.523 154.986 99.055C153.99 97.975 97.3223 41.8567 96.3958 40.8875C93.6164 38.0075 92.2474 36.3321 89.6201 36.4429C86.9789 36.5537 85.4163 38.506 82.7751 40.9429C81.9869 41.6906 22.9961 99.5396 22.6228 99.9965Z" fill="#52758E"/>
<path d="M122.379 119.686H133.801V110.16C133.801 108.387 132.363 106.961 130.606 106.961H122.379V119.686ZM118.936 119.686V106.961H110.016C108.246 106.961 106.822 108.401 106.822 110.16V119.686H118.936ZM118.936 123.286H106.822V132.216C106.822 133.989 108.26 135.415 110.016 135.415H118.936V123.286ZM122.379 123.286V135.415H130.606C132.376 135.415 133.801 133.975 133.801 132.216V123.286H122.379ZM59.1289 119.686H70.5509V110.16C70.5509 108.387 69.1128 106.961 67.3566 106.961H59.1289V119.686ZM55.6857 119.686V106.961H46.7666C44.9966 106.961 43.5723 108.401 43.5723 110.16V119.686H55.6857ZM55.6857 123.286H43.5723V132.216C43.5723 133.989 45.0104 135.415 46.7666 135.415H55.6857V123.286ZM59.1289 123.286V135.415H67.3566C69.1266 135.415 70.5509 133.975 70.5509 132.216V123.286H59.1289Z" fill="#A6CFD5"/>
<path d="M74.271 148.582C74.271 148.582 74.1051 120.973 74.271 114.009C74.437 107.044 80.9777 101.021 88.5278 101.284C97.8895 101.603 102.702 106.878 103.047 113.676C103.393 120.475 103.393 149.026 103.393 149.026L74.271 148.582Z" fill="#52758E"/>
<path d="M77.7695 150.078C77.7695 150.078 77.6312 120.655 77.7695 115.213C77.9354 108.456 83.0241 104.912 88.9288 105.258C95.8013 105.646 99.2031 109.315 99.4658 114.632C99.7285 119.949 99.7285 150.106 99.7285 150.106L77.7695 150.078Z" fill="#929292"/>
<path d="M96.1744 126.096C96.1467 121.25 96.1052 116.986 96.0361 115.67C95.8563 112.153 93.3673 109.412 88.5136 109.246C84.6002 109.107 81.3783 112.167 81.2815 115.781C81.2538 117.11 81.2538 121.292 81.2815 126.027L96.1744 126.096ZM81.3368 131.524C81.3783 138.004 81.4336 143.972 81.4336 143.972L96.2159 144.013C96.2159 144.013 96.2159 138.073 96.1882 131.579L81.3368 131.524Z" fill="#52758E"/>
<path d="M96.2298 128.589C96.1745 130.153 96.8106 131.441 98.6636 131.441C100.517 131.441 101.208 130.569 101.332 128.88C101.443 127.37 100.406 126.027 98.6636 126.152C96.9213 126.263 96.2713 127.481 96.2298 128.589Z" fill="#FFBA02"/>
<path d="M106.38 157.735C106.38 157.735 118.397 157.79 127.164 157.818C136.166 157.832 141.462 157.61 143.08 156.724C144.297 156.059 144.642 144.844 139.153 141.743C133.732 138.683 129.832 140.898 127.924 141.092C125.394 141.341 124.177 139.527 119.89 139.416C110.335 139.167 107.486 147.101 107.486 147.101L106.38 157.735ZM36.1193 157.07C37.2393 158.136 44.0981 157.749 53.4459 157.679C62.7937 157.61 70.413 157.666 70.413 157.666L74.1051 148.624L70.3162 146.976C70.3162 146.976 70.1918 141.936 64.2318 140.33C60.1111 139.223 56.5158 141.05 53.0587 141.119C49.5879 141.189 47.8455 139.749 43.9875 140.663C40.3922 141.521 36.9351 144.013 35.8012 148.749C35.013 152.03 35.2066 156.212 36.1193 157.07Z" fill="#728037"/>
<path d="M69.5278 167.302L69.597 157.666H70.3022L70.2884 146.935H107.597L107.472 157.666H108.302V167.053C108.302 167.039 69.5278 167.358 69.5278 167.302Z" fill="#B0B0B0"/>
<path d="M108.316 163.093V167.039L69.5142 167.303L69.5556 163.052L108.316 163.093ZM70.2885 153.484L107.555 153.512V157.652L70.2885 157.666V153.484Z" fill="#9B9B9B"/>
<path d="M110.901 149.593C110.957 150.742 111.731 151.836 113.335 151.836C114.939 151.836 115.7 150.562 115.769 149.538C115.838 148.513 115.064 146.976 113.28 147.046C111.482 147.101 110.832 148.306 110.901 149.593ZM119.337 144.872C119.226 145.966 120.291 147.489 121.826 147.309C123.361 147.129 124.121 146.035 123.997 144.747C123.872 143.473 122.586 142.823 121.563 142.823C120.553 142.823 119.461 143.653 119.337 144.872ZM132.943 150.992C133.026 152.459 133.704 153.429 135.377 153.429C137.037 153.429 137.742 152.224 137.742 151.13C137.742 149.524 136.912 148.569 135.253 148.569C133.593 148.569 132.888 149.787 132.943 150.992Z" fill="#FDB900"/>
<path d="M41.6365 150.036C40.1016 150.161 39.3411 151.379 39.3964 152.473C39.4655 153.567 40.2261 154.841 41.6365 154.716C43.047 154.592 44.0011 153.761 43.932 152.473C43.8905 151.504 43.2268 149.912 41.6365 150.036ZM52.3672 143.252C51.1226 143.252 50.127 144.526 50.127 145.356C50.127 146.187 50.7631 147.724 52.3672 147.655C53.9712 147.586 54.469 146.436 54.5382 145.287C54.6073 144.138 53.3904 143.252 52.3672 143.252ZM55.2434 151.324C55.1328 152.404 55.8242 154.01 57.5389 153.941C59.2674 153.872 59.8343 152.473 59.779 151.379C59.7099 150.286 58.6313 149.33 57.5389 149.275C56.4603 149.206 55.3679 150.036 55.2434 151.324ZM61.8947 147.475C61.95 148.375 62.4755 149.649 63.9966 149.455C65.5315 149.261 65.7113 148.361 65.656 147.406C65.5868 146.256 64.7572 145.675 63.7339 145.675C62.7106 145.675 61.8256 146.519 61.8947 147.475Z" fill="#FEB800"/>
</svg>
