<svg width="30" height="30" viewBox="0 0 30 30" fill="none" xmlns="http://www.w3.org/2000/svg">
<g clip-path="url(#clip0_1059_29675)">
<path d="M27.8571 0H2.14286C1.57454 0 1.02949 0.225765 0.627628 0.627628C0.225765 1.02949 0 1.57454 0 2.14286V27.8571C0 28.4255 0.225765 28.9705 0.627628 29.3724C1.02949 29.7742 1.57454 30 2.14286 30H27.8571C28.4255 30 28.9705 29.7742 29.3724 29.3724C29.7742 28.9705 30 28.4255 30 27.8571V2.14286C30 1.57454 29.7742 1.02949 29.3724 0.627628C28.9705 0.225765 28.4255 0 27.8571 0ZM27.8571 27.8571H2.14286V2.14286H27.8571V27.8571Z" fill="#52758E"/>
<path d="M11.5296 20.7651C11.6904 20.8989 11.8751 20.9784 12.0663 20.9962C12.2575 21.014 12.4492 20.9695 12.6234 20.8669L20.3248 16.3408C20.526 16.2244 20.6967 16.0359 20.8165 15.7981C20.9363 15.5603 21 15.2831 21 15C21 14.7168 20.9363 14.4397 20.8165 14.2019C20.6967 13.964 20.526 13.7756 20.3248 13.6591L12.6234 9.13306C12.4469 9.02957 12.2527 8.98527 12.0591 9.00431C11.8655 9.02335 11.6789 9.10511 11.5167 9.24194C11.3545 9.37876 11.222 9.56616 11.1317 9.78659C11.0414 10.007 10.9961 10.2532 11.0003 10.5022V19.5543C11.0032 19.7966 11.0531 20.0342 11.1455 20.2456C11.2379 20.4569 11.3699 20.6355 11.5296 20.7651ZM12.4117 11.034L19.2132 15.0283L12.4117 18.9999V11.034Z" fill="#52758E"/>
<path d="M4 3H6V6H4V3Z" fill="#52758E"/>
<path d="M11 3H13V6H11V3Z" fill="#52758E"/>
<path d="M17 3H19V6H17V3Z" fill="#52758E"/>
<path d="M24 3H26V6H24V3Z" fill="#52758E"/>
<path d="M4 24H6V27H4V24Z" fill="#52758E"/>
<path d="M11 24H13V27H11V24Z" fill="#52758E"/>
<path d="M17 24H19V27H17V24Z" fill="#52758E"/>
<path d="M24 24H26V27H24V24Z" fill="#52758E"/>
</g>
<defs>
<clipPath id="clip0_1059_29675">
<rect width="30" height="30" fill="white"/>
</clipPath>
</defs>
</svg>
