<svg width="33" height="33" viewBox="0 0 33 33" fill="none" xmlns="http://www.w3.org/2000/svg">
<path d="M16.5 16.5C18.4228 16.5 20.2669 15.7362 21.6265 14.3765C22.9862 13.0169 23.75 11.1728 23.75 9.25C23.75 7.32718 22.9862 5.48311 21.6265 4.12348C20.2669 2.76384 18.4228 2 16.5 2C14.5772 2 12.7331 2.76384 11.3735 4.12348C10.0138 5.48311 9.25 7.32718 9.25 9.25C9.25 11.1728 10.0138 13.0169 11.3735 14.3765C12.7331 15.7362 14.5772 16.5 16.5 16.5ZM21.3333 9.25C21.3333 10.5319 20.8241 11.7613 19.9177 12.6677C19.0113 13.5741 17.7819 14.0833 16.5 14.0833C15.2181 14.0833 13.9887 13.5741 13.0823 12.6677C12.1759 11.7613 11.6667 10.5319 11.6667 9.25C11.6667 7.96812 12.1759 6.73874 13.0823 5.83232C13.9887 4.92589 15.2181 4.41667 16.5 4.41667C17.7819 4.41667 19.0113 4.92589 19.9177 5.83232C20.8241 6.73874 21.3333 7.96812 21.3333 9.25ZM31 28.5833C31 31 28.5833 31 28.5833 31H4.41667C4.41667 31 2 31 2 28.5833C2 26.1667 4.41667 18.9167 16.5 18.9167C28.5833 18.9167 31 26.1667 31 28.5833ZM28.5833 28.5737C28.5809 27.9792 28.2112 26.1908 26.5727 24.5523C24.997 22.9767 22.0318 21.3333 16.5 21.3333C10.9658 21.3333 8.003 22.9767 6.42733 24.5523C4.78883 26.1908 4.4215 27.9792 4.41667 28.5737H28.5833Z" fill="#52758E"/>
</svg>
