<svg width="33" height="33" viewBox="0 0 33 33" fill="none" xmlns="http://www.w3.org/2000/svg">
<path d="M26.1249 2.75H12.375C10.8583 2.75 9.62495 3.98337 9.62495 5.5V13.1807L3.15283 19.6529C2.96059 19.8452 2.82968 20.0901 2.77665 20.3568C2.72362 20.6235 2.75085 20.8999 2.85489 21.1511C2.95894 21.4024 3.13513 21.6171 3.3612 21.7682C3.58726 21.9193 3.85304 21.9999 4.12495 22V28.875C4.12495 29.2397 4.26982 29.5894 4.52768 29.8473C4.78554 30.1051 5.13528 30.25 5.49995 30.25H27.4999C27.8646 30.25 28.2144 30.1051 28.4722 29.8473C28.7301 29.5894 28.8749 29.2397 28.8749 28.875V5.5C28.8749 3.98337 27.6416 2.75 26.1249 2.75ZM16 28.5H6V19.6529L11 15L16 19.6529V28.5ZM27 28.5H17.875V22C18.1472 22.0006 18.4134 21.9203 18.6399 21.7693C18.8664 21.6184 19.0429 21.4035 19.1471 21.152C19.2512 20.9005 19.2783 20.6238 19.2249 20.3568C19.1715 20.0899 19.04 19.8449 18.8471 19.6529L11.5 13V5H27V28.5Z" fill="#52758E"/>
<path d="M15.125 9H17.875V11.75H15.125V9ZM20.625 9H23.375V11.75H20.625V9ZM20.625 14.5426H23.375V17.25H20.625V14.5426ZM20.625 20H23.375V22.75H20.625V20ZM9.625 21.375H12.375V24.125H9.625V21.375Z" fill="#52758E"/>
</svg>
