<svg width="23" height="23" viewBox="0 0 23 23" fill="none" xmlns="http://www.w3.org/2000/svg">
<path d="M20.3508 17.2105L17.1412 13.9963L14.6725 12.9749C15.4945 11.8043 15.9349 10.4077 15.9333 8.97663C15.9333 5.12969 12.8081 2 8.96665 2C5.12522 2 2 5.12969 2 8.97663C2 12.8236 5.12522 15.9533 8.96665 15.9533C10.4081 15.9549 11.8142 15.5063 12.9891 14.6698L14.0063 17.1354L17.2158 20.3498C17.4216 20.5559 17.666 20.7194 17.9349 20.831C18.2039 20.9426 18.4921 21 18.7832 21C19.0743 21 19.3626 20.9426 19.6315 20.831C19.9005 20.7195 20.1448 20.556 20.3507 20.3499C20.5565 20.1437 20.7198 19.899 20.8312 19.6297C20.9426 19.3604 21 19.0717 21 18.7802C21 18.4887 20.9427 18.2 20.8313 17.9307C20.7199 17.6613 20.5566 17.4166 20.3508 17.2105ZM3.26666 8.97663C3.26666 5.82922 5.82374 3.26848 8.96665 3.26848C12.1096 3.26848 14.6666 5.82922 14.6666 8.97663C14.6666 12.124 12.1096 14.6848 8.96665 14.6848C5.82374 14.6848 3.26666 12.124 3.26666 8.97663ZM19.4551 19.4528C19.2768 19.631 19.0352 19.731 18.7833 19.731C18.5314 19.731 18.2898 19.631 18.1115 19.4528L15.0806 16.4175L14.1348 14.1249L16.4241 15.0721L19.4551 18.1074C19.633 18.286 19.7329 18.5279 19.7329 18.7801C19.7329 19.0324 19.633 19.2743 19.4551 19.4528Z" fill="#929292"/>
</svg>
