<svg width="18" height="18" viewBox="0 0 18 18" fill="none" xmlns="http://www.w3.org/2000/svg">
<path d="M2.25 0H15.75C16.3467 0 16.919 0.237053 17.341 0.65901C17.7629 1.08097 18 1.65326 18 2.25V15.75C18 16.3467 17.7629 16.919 17.341 17.341C16.919 17.7629 16.3467 18 15.75 18H2.25C1.65326 18 1.08097 17.7629 0.65901 17.341C0.237053 16.919 0 16.3467 0 15.75V2.25C0 1.65326 0.237053 1.08097 0.65901 0.65901C1.08097 0.237053 1.65326 0 2.25 0ZM9.5625 9.5625V16.3125H16.3125V9.5625H9.5625ZM1.6875 9.5625V16.3125H8.4375V9.5625H1.6875ZM9.5625 1.6875V8.4375H16.3125V1.6875H9.5625ZM1.6875 1.6875V8.4375H8.4375V1.6875H1.6875Z" fill="#929292"/>
</svg>
