<svg width="20" height="20" viewBox="0 0 20 20" fill="none" xmlns="http://www.w3.org/2000/svg">
<path fill-rule="evenodd" clip-rule="evenodd" d="M4.93823 13.1458V6.19466H6.00763V13.1458C6.00763 13.2876 6.06397 13.4236 6.16424 13.5239C6.26452 13.6241 6.40052 13.6805 6.54233 13.6805H16.1669C16.3088 13.6805 16.4448 13.6241 16.545 13.5239C16.6453 13.4236 16.7016 13.2876 16.7016 13.1458V6.19466H17.771V13.1458C17.771 13.5712 17.602 13.9792 17.3012 14.28C17.0004 14.5809 16.5924 14.7499 16.1669 14.7499H6.54233C6.1169 14.7499 5.70889 14.5809 5.40806 14.28C5.10724 13.9792 4.93823 13.5712 4.93823 13.1458ZM16.7016 1.38236V5.12526L14.5628 2.98646V1.38236C14.5628 1.24055 14.6192 1.10454 14.7194 1.00427C14.8197 0.903991 14.9557 0.847656 15.0975 0.847656H16.1669C16.3088 0.847656 16.4448 0.903991 16.545 1.00427C16.6453 1.10454 16.7016 1.24055 16.7016 1.38236Z" fill="#929292"/>
<path fill-rule="evenodd" clip-rule="evenodd" d="M10.5986 0.313106C10.7992 0.112624 11.0711 0 11.3547 0C11.6382 0 11.9102 0.112624 12.1107 0.313106L19.2191 7.42034C19.3195 7.52075 19.3759 7.65692 19.3759 7.79891C19.3759 7.9409 19.3195 8.07708 19.2191 8.17748C19.1186 8.27788 18.9825 8.33429 18.8405 8.33429C18.6985 8.33429 18.5623 8.27788 18.4619 8.17748L11.3547 1.06917L4.24744 8.17748C4.14704 8.27788 4.01086 8.33429 3.86887 8.33429C3.72688 8.33429 3.59071 8.27788 3.4903 8.17748C3.3899 8.07708 3.3335 7.9409 3.3335 7.79891C3.3335 7.65692 3.3899 7.52075 3.4903 7.42034L10.5986 0.313106Z" fill="#929292"/>
<path d="M1.45946 15.0001V1.09766M4 17.3904C4 17.3904 13.0327 17.3904 18.5 17.3904M4 17.3904C4 16.8474 4 16.543 4 16.0001M4 17.3904C4 17.9333 4 18.2377 4 18.7806M0 1.09766H2.91892M0 15.0001H2.91892M18.5 16.0001C18.5 17.086 18.5 18.7806 18.5 18.7806" stroke="#929292"/>
</svg>
