<svg width="19" height="19" viewBox="0 0 19 19" fill="none" xmlns="http://www.w3.org/2000/svg">
<g clip-path="url(#clip0_1417_43656)">
<path d="M15.6775 2.58888e-07C14.8231 2.58888e-07 13.9531 0.328793 13.3009 0.983234L6.02614 8.28433L1.73933 9.93066L1.32312 10.1029L1.24944 10.5458L0.147361 17.9436L0 19L1.05426 18.8537L8.42782 17.7478L8.86833 17.6738L9.03999 17.2561L10.5834 13.1753L10.9753 12.8072L18.0298 5.72792C19.2942 4.45837 19.3185 2.42111 18.1278 1.10594L18.0298 0.983234C17.7221 0.671543 17.3558 0.424165 16.9521 0.255398C16.5485 0.0866324 16.1156 -0.000173013 15.6783 2.58888e-07H15.6775ZM15.6775 1.54879C16.118 1.54879 16.5593 1.74544 16.9262 2.11434C17.6614 2.85138 17.6614 3.88417 16.9262 4.6212L12.9827 8.57851L10.4838 6.07166L14.4281 2.11434C14.7949 1.74544 15.2362 1.54879 15.6767 1.54879H15.6775ZM9.35745 7.20277L11.8563 9.70962L10.4352 11.1357L7.93635 8.62807L9.35745 7.20277ZM6.7363 9.68524H6.7606L9.28455 12.2165L7.74039 16.2729L3.16043 16.936L5.2666 14.8224C5.30971 14.8256 5.34655 14.8468 5.38888 14.8468C6.08101 14.8468 6.6634 14.2883 6.6634 13.5938C6.6634 12.8992 6.08101 12.3156 5.38888 12.3156C4.69754 12.3156 4.14023 12.8992 4.14023 13.5938C4.14023 13.6363 4.16139 13.6732 4.16453 13.7165L2.05757 15.8301L2.71913 11.234L6.7363 9.68524Z" fill="#929292"/>
</g>
<defs>
<clipPath id="clip0_1417_43656">
<rect width="19" height="19" fill="white"/>
</clipPath>
</defs>
</svg>
