<svg width="25" height="22" viewBox="0 0 25 22" fill="none" xmlns="http://www.w3.org/2000/svg">
<path d="M17.8632 7.154H17.3207L17.3492 5.264C17.3458 5.15355 17.3009 5.04788 17.2225 4.966L12.5615 0.134C12.524 0.0934626 12.4782 0.0606496 12.4268 0.0375982C12.3754 0.0145468 12.3196 0.00174921 12.2628 0L2.50998 0C2.29131 0.00332606 2.08254 0.0869012 1.9276 0.233132C1.77266 0.379363 1.68365 0.576843 1.67931 0.784V7.154H1.13573C0.83491 7.154 0.544649 7.272 0.333549 7.482C0.118164 7.69543 -0.00140664 7.97972 1.24892e-05 8.275V14.105C1.24892e-05 14.723 0.508762 15.225 1.13573 15.225H1.67931V19.215C1.6834 19.4227 1.77258 19.6207 1.928 19.7672C2.08341 19.9137 2.29288 19.9972 2.51209 20H16.527C16.965 20 17.3503 19.648 17.3503 19.216V15.226H17.8643C18.4913 15.226 19 14.723 19 14.104V8.274C19 7.978 18.8807 7.692 18.6675 7.482C18.5641 7.37887 18.4397 7.29664 18.3018 7.24027C18.164 7.1839 18.0155 7.15455 17.8653 7.154H17.8632ZM3.11373 1.378H10.4558V5.955C10.4554 6.05806 10.4969 6.15728 10.5719 6.232C10.6082 6.2682 10.6519 6.29706 10.7004 6.31682C10.7488 6.33659 10.8009 6.34685 10.8537 6.347H15.8768V7.154H3.11373V1.378ZM3.11373 18.622V15.225H15.8768V18.622H3.11373ZM11.9176 1.52L12.324 1.954L15.0472 4.807L15.1981 4.98H12.4148C12.2037 4.98 12.0717 4.947 12.0158 4.88C11.9598 4.815 11.9271 4.71 11.9176 4.567V1.52ZM2.11101 14.232V8.232H4.13545C4.90174 8.232 5.40204 8.262 5.63425 8.322C5.99312 8.412 6.29288 8.608 6.53459 8.91C6.77524 9.211 6.89663 9.6 6.89663 10.078C6.89663 10.446 6.82696 10.756 6.68764 11.008C6.54831 11.258 6.37099 11.455 6.15672 11.598C5.96087 11.7335 5.73835 11.8304 5.50231 11.883C5.2015 11.94 4.76558 11.969 4.19455 11.969H3.37232V14.232H2.11101ZM3.37232 9.247V10.95H4.06262C4.55976 10.95 4.89224 10.918 5.06006 10.856C5.22227 10.798 5.36122 10.6933 5.4574 10.5566C5.55357 10.42 5.60213 10.2582 5.59625 10.094C5.60395 9.89644 5.53229 9.70347 5.39571 9.554C5.26392 9.41303 5.0851 9.31914 4.88907 9.288C4.73919 9.261 4.43626 9.248 3.98134 9.248H3.37232V9.247ZM7.63653 8.232H9.94173C10.4621 8.232 10.8579 8.27 11.1313 8.347C11.4975 8.45 11.811 8.635 12.0728 8.899C12.3335 9.164 12.533 9.488 12.6691 9.871C12.8063 10.255 12.8739 10.727 12.8739 11.289C12.8739 11.783 12.8106 12.209 12.6818 12.566C12.5256 13.003 12.3018 13.356 12.0126 13.626C11.7941 13.831 11.4986 13.991 11.126 14.106C10.8484 14.19 10.4758 14.232 10.0103 14.232H7.63653V8.232ZM8.89785 9.247V13.221H9.83935C10.1919 13.221 10.4463 13.202 10.6025 13.164C10.8072 13.114 10.9772 13.032 11.1112 12.914C11.2463 12.797 11.3572 12.604 11.4416 12.335C11.5271 12.066 11.5693 11.7 11.5693 11.236C11.5693 10.772 11.5271 10.416 11.4426 10.168C11.3756 9.94919 11.2523 9.74955 11.0838 9.587C10.9209 9.44294 10.7187 9.34492 10.5001 9.304C10.3238 9.266 9.97867 9.247 9.4657 9.247H8.89785ZM13.6613 14.232V8.232H17.9434V9.247H14.9226V10.667H17.5297V11.682H14.9226V14.232H13.6613Z" fill="#040404"/>
<path d="M22.6111 1.5H20.3889V15.3313H18.5L21.5 20L24.5 15.3313H22.6111V1.5Z" fill="#040404"/>
</svg>
