<svg width="22" height="22" viewBox="0 0 22 22" fill="none" xmlns="http://www.w3.org/2000/svg">
<path d="M14.8101 6.43203L15.133 6.18367L15.4415 6.44962C15.8715 6.82036 16.4148 7.03813 17 7.03813C18.3504 7.03813 19.5 5.86114 19.5 4.34801C19.5 2.83489 18.3504 1.65789 17 1.65789C15.6496 1.65789 14.5 2.83489 14.5 4.34801C14.5 4.61018 14.5343 4.86327 14.5996 5.10068L14.6887 5.42453L14.4225 5.62944L9.50254 9.41771L9.09059 9.7349L8.78972 9.31088C8.14458 8.40166 7.13067 7.82546 6 7.82546C4.09464 7.82546 2.5 9.47565 2.5 11.5789C2.5 13.6822 4.09464 15.3324 6 15.3324C7.13067 15.3324 8.14458 14.7562 8.78972 13.847L9.09059 13.423L9.50254 13.7402L14.4225 17.5285L14.6887 17.7334L14.5996 18.0572C14.5343 18.2948 14.5 18.5453 14.5 18.8099C14.5 20.323 15.6496 21.5 17 21.5C18.3504 21.5 19.5 20.323 19.5 18.8099C19.5 17.2968 18.3504 16.1198 17 16.1198C16.4148 16.1198 15.8715 16.3375 15.4415 16.7083L15.133 16.9742L14.8101 16.7259L9.63013 12.7409L9.3913 12.5571L9.44218 12.2601C9.51934 11.8098 9.51934 11.3481 9.44218 10.8978L9.3913 10.6008L9.63013 10.417L14.8101 6.43203ZM18.8 18.8099C18.8 19.8196 18.0221 20.6923 17 20.6923C15.9779 20.6923 15.2 19.8196 15.2 18.8099C15.2 17.8002 15.9779 16.9275 17 16.9275C18.0221 16.9275 18.8 17.8002 18.8 18.8099ZM3.3 11.5789C3.3 10.0429 4.48286 8.73953 6 8.73953C7.51714 8.73953 8.7 10.0429 8.7 11.5789C8.7 13.115 7.51714 14.4184 6 14.4184C4.48286 14.4184 3.3 13.115 3.3 11.5789ZM15.2 4.34801C15.2 3.33829 15.9779 2.46563 17 2.46563C18.0221 2.46563 18.8 3.33829 18.8 4.34801C18.8 5.35774 18.0221 6.2304 17 6.2304C15.9779 6.2304 15.2 5.35774 15.2 4.34801Z" fill="white" stroke="#040404"/>
</svg>
