<svg width="20" height="20" viewBox="0 0 20 20" fill="none" xmlns="http://www.w3.org/2000/svg">
<path d="M13.436 5.81127L13.7588 5.56292L14.0673 5.82886C14.4506 6.15925 14.9341 6.35285 15.4545 6.35285C16.6544 6.35285 17.6818 5.30588 17.6818 3.95274C17.6818 2.5996 16.6544 1.55263 15.4545 1.55263C14.2546 1.55263 13.2272 2.5996 13.2272 3.95274C13.2272 4.18711 13.2579 4.41313 13.3161 4.62493L13.4052 4.94878L13.1391 5.15369L8.66634 8.59757L8.25439 8.91476L7.95352 8.49074C7.37474 7.67505 6.46628 7.15951 5.45448 7.15951C3.75003 7.15951 2.31812 8.63666 2.31812 10.5263C2.31812 12.416 3.75003 13.8931 5.45448 13.8931C6.46628 13.8931 7.37474 13.3776 7.95352 12.5619L8.25439 12.1379L8.66634 12.4551L13.1391 15.8989L13.4052 16.1039L13.3161 16.4277C13.2578 16.6397 13.2272 16.8633 13.2272 17.0999C13.2272 18.453 14.2546 19.5 15.4545 19.5C16.6544 19.5 17.6818 18.453 17.6818 17.0999C17.6818 15.7468 16.6544 14.6998 15.4545 14.6998C14.9341 14.6998 14.4506 14.8934 14.0673 15.2238L13.7588 15.4897L13.436 15.2414L8.72688 11.6186L8.48805 11.4349L8.53893 11.1379C8.60821 10.7336 8.60821 10.3191 8.53893 9.91472L8.48805 9.61773L8.72688 9.43399L13.436 5.81127ZM17.1363 17.0999C17.1363 18.0403 16.4114 18.8566 15.4545 18.8566C14.4976 18.8566 13.7727 18.0403 13.7727 17.0999C13.7727 16.1595 14.4976 15.3432 15.4545 15.3432C16.4114 15.3432 17.1363 16.1595 17.1363 17.0999ZM2.95448 10.5263C2.95448 9.10743 4.04756 7.89957 5.45448 7.89957C6.86139 7.89957 7.95448 9.10743 7.95448 10.5263C7.95448 11.9452 6.86139 13.1531 5.45448 13.1531C4.04756 13.1531 2.95448 11.9452 2.95448 10.5263ZM13.7727 3.95274C13.7727 3.01238 14.4976 2.19603 15.4545 2.19603C16.4114 2.19603 17.1363 3.01237 17.1363 3.95274C17.1363 4.8931 16.4114 5.70945 15.4545 5.70945C14.4976 5.70945 13.7727 4.8931 13.7727 3.95274Z" fill="white" stroke="#52758E"/>
</svg>
