<svg width="48" height="48" viewBox="0 0 48 48" fill="none" xmlns="http://www.w3.org/2000/svg">
<rect width="48" height="48" rx="24" fill="#8D8D8D"/>
<g clip-path="url(#clip0_1063_38993)">
<path d="M29.4286 34.5V36.6875C29.4286 37.4124 28.8769 38 28.1964 38H14.2321C13.5516 38 13 37.4124 13 36.6875V16.5625C13 15.8376 13.5516 15.25 14.2321 15.25H17.9286V31.4375C17.9286 33.1262 19.2183 34.5 20.8036 34.5H29.4286ZM29.4286 15.6875V10H20.8036C20.1231 10 19.5714 10.5876 19.5714 11.3125V31.4375C19.5714 32.1624 20.1231 32.75 20.8036 32.75H34.7679C35.4484 32.75 36 32.1624 36 31.4375V17H30.6607C29.983 17 29.4286 16.4094 29.4286 15.6875ZM35.6391 13.9906L32.2537 10.3844C32.0227 10.1383 31.7093 10 31.3825 10H31.0714V15.25H36V14.9186C36 14.5706 35.8702 14.2367 35.6391 13.9906Z" fill="white"/>
</g>
<defs>
<clipPath id="clip0_1063_38993">
<rect width="23" height="28" fill="white" transform="translate(13 10)"/>
</clipPath>
</defs>
</svg>
