<svg width="48" height="48" viewBox="0 0 48 48" fill="none" xmlns="http://www.w3.org/2000/svg">
<rect width="48" height="48" rx="24" fill="#1AA8FF"/>
<path fill-rule="evenodd" clip-rule="evenodd" d="M38.4628 33.9753C38.4031 33.9914 38.3404 34 38.2758 34H10.724C10.6593 34 10.5967 33.9914 10.537 33.9754L19.1264 25.3223L20.9502 27.2055C22.9093 29.2286 26.0904 29.2287 28.0497 27.2055L29.8735 25.3223L38.4628 33.9753ZM38.9999 33.0514V15.8869C38.9999 15.7993 38.9846 15.7153 38.9566 15.6375C38.9137 15.7374 30.3798 24.5809 30.3798 24.5809L38.9754 33.2403C38.9914 33.18 38.9999 33.1167 38.9999 33.0514ZM10 33.1242V15.9597C10 15.8722 10.0154 15.7882 10.0435 15.7105C10.0862 15.8104 18.6201 24.6538 18.6201 24.6538L10.0245 33.3132C10.0085 33.2529 10 33.1896 10 33.1242ZM38.4979 15.0139L27.5308 26.3295C25.856 28.0589 23.1438 28.0588 21.4691 26.3295C21.4691 26.3295 14.1589 18.787 10.5038 15.0157C10.4707 14.9815 38.4979 15.0139 38.4979 15.0139Z" fill="white"/>
</svg>
