<svg width="48" height="48" viewBox="0 0 48 48" fill="none" xmlns="http://www.w3.org/2000/svg">
<rect width="48" height="48" rx="24" fill="#675DA9"/>
<path d="M35.7535 12.1845C34.9596 11.4547 31.7456 9.11782 24.5814 9.08581C24.5814 9.08581 16.1367 8.57362 12.02 12.351C9.72798 14.643 8.92129 17.9915 8.83806 22.153C8.75483 26.3081 8.64599 34.0998 16.1559 36.2125H16.1623L16.1559 39.4329C16.1559 39.4329 16.1111 40.739 16.969 41.0015C18.0062 41.3216 18.6208 40.3292 19.6132 39.26C20.1574 38.671 20.9065 37.8131 21.4763 37.1537C26.611 37.5826 30.5612 36.5967 31.0094 36.4494C32.0465 36.1101 37.9175 35.361 38.8714 27.5694C39.8574 19.5536 38.3913 14.4766 35.7535 12.1845ZM36.6242 27.006C35.8175 33.5107 31.0606 33.9205 30.1835 34.2022C29.8121 34.3238 26.3421 35.1882 21.9757 34.9C21.9757 34.9 18.7233 38.8247 17.7117 39.8427C17.5516 40.0027 17.366 40.0667 17.2443 40.0347C17.0715 39.9899 17.0202 39.785 17.0267 39.4841C17.0267 39.0488 17.0523 34.1254 17.0523 34.1254C17.0459 34.1254 17.0459 34.1254 17.0523 34.1254C10.6947 32.3647 11.0661 25.7319 11.1365 22.2618C11.2069 18.7918 11.86 15.9427 13.7999 14.0284C17.2763 10.8785 24.4534 11.3458 24.4534 11.3458C30.51 11.3714 33.4102 13.1961 34.0825 13.8043C36.3169 15.725 37.4565 20.3027 36.6242 27.006Z" fill="white"/>
<path d="M27.5328 22.3835C27.3216 22.3835 27.1423 22.217 27.1295 21.9993C27.0591 20.6228 26.4124 19.9506 25.0935 19.8802C24.8695 19.8674 24.6966 19.6753 24.7094 19.4512C24.7222 19.2271 24.9143 19.0543 25.1384 19.0671C26.8798 19.1631 27.853 20.1619 27.9426 21.9545C27.9554 22.1786 27.7825 22.3707 27.5584 22.3771C27.5456 22.3835 27.5392 22.3835 27.5328 22.3835Z" fill="white"/>
<path d="M29.6072 23.0753H29.6008C29.3767 23.0689 29.1974 22.8832 29.2038 22.6591C29.2359 21.2762 28.8389 20.1558 27.9938 19.2339C27.1551 18.3119 25.9963 17.8126 24.4661 17.7037C24.242 17.6845 24.0756 17.4924 24.0948 17.2684C24.114 17.0443 24.306 16.8778 24.5301 16.897C26.2588 17.0251 27.6225 17.6269 28.5956 18.6897C29.5752 19.7589 30.0489 21.097 30.0169 22.6783C30.0105 22.9024 29.8249 23.0753 29.6072 23.0753Z" fill="white"/>
<path d="M31.7327 23.907C31.5087 23.907 31.3294 23.7278 31.3294 23.5037C31.3102 21.026 30.5995 19.1373 29.1526 17.7224C27.7249 16.3267 25.913 15.616 23.781 15.5968C23.557 15.5968 23.3777 15.4111 23.3777 15.187C23.3777 14.963 23.5634 14.7837 23.781 14.7837C26.1307 14.8029 28.1282 15.5904 29.7096 17.1398C31.2974 18.6891 32.1105 20.8275 32.1361 23.4909C32.1425 23.7214 31.9632 23.907 31.7327 23.907C31.7391 23.907 31.7391 23.907 31.7327 23.907Z" fill="white"/>
<path d="M25.1897 27.3962C25.1897 27.3962 25.7595 27.4474 26.0668 27.0697L26.6622 26.3206C26.9503 25.9493 27.6482 25.7124 28.3268 26.0901C28.7046 26.3014 29.3896 26.724 29.8122 27.0377C30.2667 27.3706 31.1887 28.1389 31.1951 28.1453C31.6368 28.5166 31.7393 29.0608 31.4384 29.6434C31.4384 29.6434 31.4384 29.6498 31.4384 29.6562C31.131 30.2004 30.7149 30.7126 30.1963 31.1864C30.1899 31.1864 30.1899 31.1928 30.1835 31.1928C29.7545 31.5513 29.332 31.7562 28.9222 31.801C28.871 31.8138 28.8134 31.8138 28.7366 31.8138C28.5573 31.8138 28.378 31.7882 28.1988 31.7306L28.186 31.7114C27.5457 31.5321 26.4829 31.084 24.7159 30.1044C23.5635 29.4706 22.6095 28.8239 21.7964 28.1773C21.3675 27.838 20.9321 27.4602 20.484 27.0121C20.4711 26.9993 20.4519 26.9801 20.4391 26.9672C20.4263 26.9544 20.4071 26.9352 20.3943 26.9224C20.3815 26.9096 20.3623 26.8904 20.3495 26.8776C20.3367 26.8648 20.3175 26.8456 20.3047 26.8328C19.8629 26.3846 19.4788 25.9493 19.1395 25.5203C18.4928 24.7136 17.8462 23.7533 17.2124 22.6008C16.2328 20.8274 15.7846 19.7646 15.6054 19.1308L15.5862 19.118C15.5285 18.9387 15.5029 18.7594 15.5029 18.5802C15.5029 18.5033 15.5029 18.4457 15.5157 18.3945C15.567 17.9784 15.7718 17.5622 16.124 17.1332C16.124 17.1268 16.1304 17.1268 16.1304 17.1204C16.6041 16.5955 17.1163 16.1857 17.6605 15.8784C17.6605 15.8784 17.6669 15.8784 17.6733 15.8784C18.2495 15.5775 18.7937 15.6799 19.1715 16.1217C19.1715 16.1217 19.9462 17.05 20.2791 17.5046C20.5928 17.9335 21.0153 18.6122 21.2266 18.9899C21.6044 19.6686 21.3675 20.3664 20.9961 20.6545L20.2471 21.25C19.8693 21.5573 19.9205 22.1271 19.9205 22.1271C19.9205 22.1271 21.0282 26.3398 25.1897 27.3962Z" fill="white"/>
</svg>
